<svg xmlns="http://www.w3.org/2000/svg" width="55" height="55" viewBox="0 0 55 55">
  <g id="sorting_icon" transform="translate(-16 -2816)">
    <g id="Эллипс_69" data-name="Эллипс 69" transform="translate(16 2816)" fill="#00acda" stroke="#00acda" stroke-width="3">
      <circle cx="27.5" cy="27.5" r="27.5" stroke="none"/>
      <circle cx="27.5" cy="27.5" r="26" fill="none"/>
    </g>
    <g id="Сгруппировать_400" data-name="Сгруппировать 400">
      <rect id="Прямоугольник_127" data-name="Прямоугольник 127" width="11.343" height="2.657" rx="1.329" transform="translate(23.722 2843.253)" fill="#fff"/>
      <path id="Контур_94" data-name="Контур 94" d="M-758.877-1995.648l-4.058,2.343a.56.56,0,0,0,0,.969l4.058,2.343a.56.56,0,0,0,.839-.485v-4.686A.56.56,0,0,0-758.877-1995.648Z" transform="translate(782.729 4837.402)" fill="#fff"/>
    </g>
    <path id="Контур_95" data-name="Контур 95" d="M1226.257-1188.479l-14.517,3.936v-17.664l5.4-1.416v7.477l4.781-1.253v-7.477l4.467-1.171Zm1.164-18.23a.514.514,0,0,0-.011-.1c0-.009,0-.019-.007-.028a.5.5,0,0,0-.027-.078c0-.007-.006-.015-.01-.022a.513.513,0,0,0-.055-.087l-.015-.017a.512.512,0,0,0-.061-.06l-.012-.012-.01-.006a.513.513,0,0,0-.09-.055l-.007,0a.508.508,0,0,0-.072-.026l-15.681-4.316a.514.514,0,0,0-.27,0l-15.715,4.27a.513.513,0,0,0-.072.026l-.007,0a.513.513,0,0,0-.09.054l-.01.006-.011.011a.5.5,0,0,0-.062.06l-.015.016a.521.521,0,0,0-.055.087c0,.007-.006.015-.01.022a.558.558,0,0,0-.028.078c0,.009,0,.018-.007.028a.511.511,0,0,0-.012.1h0l.09,18.822a.512.512,0,0,0,.383.493l15.625,4.063.014,0a.519.519,0,0,0,.115.015.522.522,0,0,0,.12-.016l.014,0,15.539-4.213a.512.512,0,0,0,.378-.491l.142-18.626h0Zm-16.193,3.577-13.737-3.633,4.67-1.269,13.965,3.618Zm0-7.364,13.707,3.772-4.028,1.056-14.083-3.631Zm-15.2,4.4,14.687,3.884v17.672l-14.6-3.8Z" transform="translate(-1166.71 4040.991)" fill="#fff"/>
  </g>
</svg>
