<svg id="Сгруппировать_92" data-name="Сгруппировать 92" xmlns="http://www.w3.org/2000/svg" width="33" height="32.107" viewBox="0 0 33 32.107">
  <path id="rect4135" d="M-832.474-1150.037l-.231,1.3a4.887,4.887,0,0,0-.853.223l-.846-1.005-1.025.592.439,1.226a4.874,4.874,0,0,0-.639.628l-1.214-.44-.592,1.025.973.826a4.872,4.872,0,0,0-.245.884l-1.247.221v1.183l1.247.227a4.874,4.874,0,0,0,.235.894l-.964.811.592,1.025,1.181-.423a4.879,4.879,0,0,0,.659.662l-.426,1.175,1.025.592.81-.955a4.878,4.878,0,0,0,.9.242l.219,1.232h1.183l.224-1.233a4.868,4.868,0,0,0,.892-.248l.817.963,1.025-.592-.436-1.2a4.884,4.884,0,0,0,.64-.644l1.21.433.592-1.025-1-.838a4.883,4.883,0,0,0,.23-.861l1.282-.233v-1.183l-1.3-.23a4.877,4.877,0,0,0-.231-.846l1.008-.855-.592-1.025-1.244.451a4.855,4.855,0,0,0-.617-.615l.447-1.25-1.025-.592-.852,1.013a4.891,4.891,0,0,0-.844-.232l-.236-1.3Zm.592,4.174a1.9,1.9,0,0,1,1.9,1.9h0a1.9,1.9,0,0,1-1.9,1.9h0a1.9,1.9,0,0,1-1.9-1.9h0a1.9,1.9,0,0,1,1.9-1.9Zm0,.759a1.138,1.138,0,0,0-1.138,1.138,1.138,1.138,0,0,0,1.138,1.138,1.138,1.138,0,0,0,1.138-1.138A1.138,1.138,0,0,0-831.882-1145.1Z" transform="translate(837.953 1170.003)" fill="#00acda"/>
  <path id="Контур_77" data-name="Контур 77" d="M-757.873-1365.523a30,30,0,0,0-9.528-1.384,30,30,0,0,0-9.528,1.384c-2.855,1-4.364,2.372-4.364,3.976v13.135a7.718,7.718,0,0,1,.855-.049c.24,0,.476.012.71.034v-3.808a10.68,10.68,0,0,0,2.8,1.39,30.006,30.006,0,0,0,9.528,1.384,30.007,30.007,0,0,0,9.528-1.384,10.681,10.681,0,0,0,2.8-1.39v4.14c0,1.585-4.689,3.8-12.327,3.8a32.088,32.088,0,0,1-6.632-.641,7.548,7.548,0,0,1,.82,1.744,35.4,35.4,0,0,0,5.811.461,30,30,0,0,0,9.528-1.384,10.681,10.681,0,0,0,2.8-1.39v4.14c0,1.585-4.689,3.8-12.327,3.8a33.014,33.014,0,0,1-5.977-.51,7.572,7.572,0,0,1-.756,1.442,34.3,34.3,0,0,0,6.734.633,30,30,0,0,0,9.528-1.385c2.855-1,4.364-2.372,4.364-3.976v-20.178C-753.509-1363.151-755.018-1364.526-757.873-1365.523Zm2.8,10.7c0,1.585-4.689,3.8-12.327,3.8s-12.327-2.21-12.327-3.8v-4.14a10.677,10.677,0,0,0,2.8,1.39,30,30,0,0,0,9.528,1.385,30,30,0,0,0,9.528-1.385,10.678,10.678,0,0,0,2.8-1.39Zm-12.327-2.931c-7.637,0-12.327-2.211-12.327-3.8s4.69-3.8,12.327-3.8,12.327,2.21,12.327,3.8S-759.764-1357.751-767.4-1357.751Z" transform="translate(786.509 1366.907)" fill="#00acda"/>
</svg>
