<svg xmlns="http://www.w3.org/2000/svg" width="55" height="55" viewBox="0 0 55 55">
  <g id="profesional_icon" transform="translate(-6198 -4160)">
    <g id="Эллипс_68" data-name="Эллипс 68" transform="translate(6198 4160)" fill="#00acda" stroke="#00acda" stroke-width="3">
      <circle cx="27.5" cy="27.5" r="27.5" stroke="none"/>
      <circle cx="27.5" cy="27.5" r="26" fill="none"/>
    </g>
    <path id="Контур_76" data-name="Контур 76" d="M2126.508-2126.12h0l-.664.671a3.5,3.5,0,0,0-4.625.406l-.128.128c-.036-.041-.071-.082-.108-.12a3.437,3.437,0,0,0-4.6-.086l-.445-.446,0,0-4.118-4.117-11.138,11.138,4.117,4.118,1.672-1.672,4.948,4.948c-.045.038-.09.078-.132.121a1.908,1.908,0,0,0-.094,2.69,1.8,1.8,0,0,0,1.626.473,1.758,1.758,0,0,0,1.334,2.1,1.759,1.759,0,0,0,.765,0,1.758,1.758,0,0,0,1.333,2.1,1.759,1.759,0,0,0,.765,0,1.8,1.8,0,0,0,.473,1.626,1.908,1.908,0,0,0,2.69-.094,2.118,2.118,0,0,0,.144-.16h0a1.939,1.939,0,0,0,2.424-.31,2.013,2.013,0,0,0,.589-1.663,2.047,2.047,0,0,0,2.251-1.821,2.016,2.016,0,0,0,0-.431,2.047,2.047,0,0,0,2.251-1.821,2.018,2.018,0,0,0,0-.431,2.011,2.011,0,0,0,1.663-.588,1.94,1.94,0,0,0,.317-2.415l5.515-5.515,1.558,1.558,4.418-4.417-10.384-10.383Zm-24.8,7.536,10.073-10.073,3.124,3.125-10.073,10.073Zm10.014,9.708a1.176,1.176,0,0,1,.058-1.66,1.176,1.176,0,0,1,1.66-.058,1.176,1.176,0,0,1-.058,1.66,1.176,1.176,0,0,1-1.66.058Zm2.1,2.1a1.177,1.177,0,0,1,.058-1.661,1.176,1.176,0,0,1,1.66-.058,1.176,1.176,0,0,1-.058,1.661,1.176,1.176,0,0,1-1.66.058Zm2.1,2.1a1.175,1.175,0,0,1,.058-1.66,1.176,1.176,0,0,1,1.66-.058,1.176,1.176,0,0,1-.058,1.66A1.176,1.176,0,0,1,2115.924-2104.679Zm3.759,2.04a1.176,1.176,0,0,1-1.66.059,1.177,1.177,0,0,1,.058-1.661,1.176,1.176,0,0,1,1.66-.058A1.176,1.176,0,0,1,2119.683-2102.639Zm9.381-8.883a1.176,1.176,0,0,1-.059,1.66,1.176,1.176,0,0,1-1.66.058l0,0h0l-1.017-1.017-3.1-3.1-.533.532,3.1,3.1,1.019,1.019a1.176,1.176,0,0,1-.058,1.66,1.177,1.177,0,0,1-1.661.058h0l-1.019-1.019-3.1-3.1-.532.532,3.1,3.1,1.017,1.017h0a1.176,1.176,0,0,1-.058,1.661,1.176,1.176,0,0,1-1.66.058v0l-4.116-4.117-.533.533,3.1,3.1,1.017,1.017.063.063,0,0a1.182,1.182,0,0,1-.116,1.6,1.187,1.187,0,0,1-1.564.143,1.823,1.823,0,0,0-.413-1.867,1.8,1.8,0,0,0-1.626-.473,1.758,1.758,0,0,0-1.334-2.1,1.75,1.75,0,0,0-.765,0,1.759,1.759,0,0,0-1.334-2.1,1.766,1.766,0,0,0-.765,0,1.8,1.8,0,0,0-.473-1.626,1.824,1.824,0,0,0-1.875-.409l-5.1-5.1h0l8.4-8.4.928.928.261-.261a2.737,2.737,0,0,1,3.86-.135c.037.037.073.079.108.12l-3.957,3.957a1.841,1.841,0,0,0-.091,2.6,1.707,1.707,0,0,0,1.279.491,1.966,1.966,0,0,0,1.316-.582l1.779-1.779,7.158,7.158h0l1.017,1.017h0Zm5.772-6.27-5.489,5.488-7.1-7.105h0a3.6,3.6,0,0,0,3.7-.915,3.928,3.928,0,0,0,.335-.383.356.356,0,0,0-.047-.5l-.007-.006a.374.374,0,0,0-.512.091,3.089,3.089,0,0,1-.265.3,2.737,2.737,0,0,1-3.86.136c-.018-.018-.034-.037-.05-.056l-.038-.043a.349.349,0,0,0-.4-.078.4.4,0,0,0-.15.111l-2.335,2.335a1.11,1.11,0,0,1-1.566.055,1.025,1.025,0,0,1-.3-.771,1.182,1.182,0,0,1,.352-.794l4.617-4.617a2.738,2.738,0,0,1,3.86-.136.364.364,0,0,0,.514-.018v0h0l.914-.923Zm2.091,1.025-9.39-9.39,8.329,8.328-8.329-8.328,3.352-3.352,9.39,9.39Z" transform="translate(4104.317 6303.537)" fill="#fff" stroke="#fff" stroke-width="0.5"/>
  </g>
</svg>
