<svg xmlns="http://www.w3.org/2000/svg" width="64" height="64" viewBox="0 0 64 64">
  <g id="Сгруппировать_402" data-name="Сгруппировать 402" transform="translate(-8393 -4573)">
    <g id="Сгруппировать_239" data-name="Сгруппировать 239" transform="translate(8377 3259)">
      <g id="Эллипс_87" data-name="Эллипс 87" transform="translate(16 1314)" fill="#fff" stroke="#00acda" stroke-width="2">
        <circle cx="32" cy="32" r="32" stroke="none"/>
        <circle cx="32" cy="32" r="31" fill="none"/>
      </g>
    </g>
    <g id="Сгруппировать_93" data-name="Сгруппировать 93" transform="translate(8415 4591)">
      <path id="Контур_78" data-name="Контур 78" d="M175.627-1306.836H156.518a.583.583,0,0,0-.583.583v25.89a.583.583,0,0,0,.583.583h19.109a.583.583,0,0,0,.583-.583h0v-25.89a.583.583,0,0,0-.583-.583Zm-13.655,24.226a.583.583,0,0,1-.583.583h-2.313a.583.583,0,0,1-.583-.583v-2.312a.583.583,0,0,1,.583-.583h2.313a.583.583,0,0,1,.583.583Zm0-5.235a.583.583,0,0,1-.583.583h-2.313a.583.583,0,0,1-.583-.583v-2.313a.583.583,0,0,1,.583-.582h2.313a.583.583,0,0,1,.583.582Zm0-5.236a.583.583,0,0,1-.583.583h-2.313a.583.583,0,0,1-.583-.583v-2.31a.583.583,0,0,1,.583-.582h2.313a.583.583,0,0,1,.583.582Zm5.842,10.471a.583.583,0,0,1-.583.583h-2.315a.583.583,0,0,1-.583-.583v-2.312a.583.583,0,0,1,.583-.583h2.313a.583.583,0,0,1,.583.583Zm0-5.235a.583.583,0,0,1-.583.583h-2.315a.583.583,0,0,1-.583-.583v-2.313a.583.583,0,0,1,.583-.582h2.313a.583.583,0,0,1,.585.58v2.314Zm0-5.236a.583.583,0,0,1-.583.583h-2.315a.583.583,0,0,1-.583-.583v-2.31a.583.583,0,0,1,.583-.582h2.313a.583.583,0,0,1,.585.58v2.312Zm5.837,10.471a.583.583,0,0,1-.583.583h-2.313a.582.582,0,0,1-.578-.583v-7.548a.582.582,0,0,1,.582-.582h2.313a.583.583,0,0,1,.583.582Zm0-10.471a.583.583,0,0,1-.583.583h-2.313a.582.582,0,0,1-.582-.582h0v-2.31a.582.582,0,0,1,.582-.582h2.313a.583.583,0,0,1,.583.582Zm.461-5.958a.583.583,0,0,1-.582.583H158.613a.583.583,0,0,1-.582-.583v-4.966a.583.583,0,0,1,.582-.583H173.53a.583.583,0,0,1,.582.583Z" transform="translate(-155.935 1306.836)" fill="#00acda"/>
    </g>
  </g>
</svg>
