<svg xmlns="http://www.w3.org/2000/svg" width="64" height="64" viewBox="0 0 64 64">
  <g id="bravery_icon" transform="translate(-146 -2222)">
    <g id="Сгруппировать_242" data-name="Сгруппировать 242" transform="translate(130 908)">
      <g id="Эллипс_87" data-name="Эллипс 87" transform="translate(16 1314)" fill="#fff" stroke="#00acda" stroke-width="2">
        <circle cx="32" cy="32" r="32" stroke="none"/>
        <circle cx="32" cy="32" r="31" fill="none"/>
      </g>
    </g>
    <path id="Контур_102" data-name="Контур 102" d="M539.8-699.643l.042-.249c.028-.166.056-.332.085-.5l.006-.035q.219-1.3.445-2.711c-3.991-.028-13.215-3.868-13.215-3.868-4.341,2.12-9.223,3.84-13.214,3.868,1.931,11.942,3.215,18.112,8.246,22.537l.034.03q.3.26.613.513l.046.037.2.161.037.029q.208.16.423.317l.027.02.208.149.075.053q.325.228.667.452l.086.056.216.138.075.047q.212.133.43.264l.07.042.228.134.1.057q.372.215.764.427l.091.049.258.137.048.025.271.141c8.562-4.388,10.467-9.667,12.607-22.147Z" transform="translate(-349.45 2946.506)" fill="none" stroke="#00acda" stroke-width="2"/>
  </g>
</svg>
