<svg id="Сгруппировать_4" data-name="Сгруппировать 4" xmlns="http://www.w3.org/2000/svg" xmlns:xlink="http://www.w3.org/1999/xlink" width="297.501" height="73.439" viewBox="0 0 297.501 73.439">
  <defs>
    <linearGradient id="linear-gradient" y1="0.5" x2="1" y2="0.5" gradientUnits="objectBoundingBox">
      <stop offset="0" stop-color="#00acda"/>
      <stop offset="1" stop-color="#fff"/>
    </linearGradient>
    <linearGradient id="linear-gradient-2" y1="0.5" x2="1" y2="0.5" gradientUnits="objectBoundingBox">
      <stop offset="0" stop-color="#00acda"/>
      <stop offset="0.2" stop-color="#2dbbe1"/>
      <stop offset="0.63" stop-color="#9ddff1"/>
      <stop offset="1" stop-color="#fff"/>
    </linearGradient>
  </defs>
  <g id="Сгруппировать_3" data-name="Сгруппировать 3" transform="translate(74.975)">
    <path id="Контур_30" data-name="Контур 30" d="M424.42,128.294h-6.736V116.557H407.7v11.737H400.93v-28.1H407.7v11.156h9.981V100.19h6.736Z" transform="translate(-400.927 -98.625)"/>
    <path id="Контур_31" data-name="Контур 31" d="M516.651,146.024a6.689,6.689,0,0,1-5.571,2.653,6.555,6.555,0,0,1-5.2-2,8.488,8.488,0,0,1-1.767-5.741V127.408h6.505v13.568q0,2.682,2.605,2.682a3.4,3.4,0,0,0,3.184-1.592V127.4h6.54v20.885h-6.1Z" transform="translate(-476.733 -118.616)"/>
    <path id="Контур_32" data-name="Контур 32" d="M594.809,126.327l.212,2.451a7.186,7.186,0,0,1,5.964-2.839q3.956,0,5.346,3.147a6.942,6.942,0,0,1,6.139-3.147q6.349,0,6.524,7.694v13.589h-6.524V134.037a4.065,4.065,0,0,0-.531-2.335,2.247,2.247,0,0,0-1.969-.732,3.083,3.083,0,0,0-2.879,1.706l.019.265v14.265H600.58V134.066a4.117,4.117,0,0,0-.531-2.374,2.3,2.3,0,0,0-1.99-.732,3.124,3.124,0,0,0-2.857,1.717v14.536H588.71V126.327Z" transform="translate(-538.889 -117.543)"/>
    <path id="Контур_33" data-name="Контур 33" d="M725.949,147.212a7.308,7.308,0,0,1-.618-1.873,6.057,6.057,0,0,1-5.02,2.258,7.41,7.41,0,0,1-5.03-1.785,5.677,5.677,0,0,1-2.064-4.486,5.843,5.843,0,0,1,2.51-5.136q2.51-1.738,7.3-1.735h2.008v-1.106q0-2.889-2.491-2.889a2.034,2.034,0,0,0-2.316,2.287h-6.495a5.835,5.835,0,0,1,2.576-4.916,10.808,10.808,0,0,1,6.574-1.889,9.492,9.492,0,0,1,6.312,1.95,6.818,6.818,0,0,1,2.388,5.346v9.246a9.452,9.452,0,0,0,.886,4.4v.329Zm-4.075-4.245a3.635,3.635,0,0,0,2.019-.531,3.29,3.29,0,0,0,1.149-1.178v-3.332H723.15q-3.4,0-3.4,3.051a1.857,1.857,0,0,0,.6,1.438,2.165,2.165,0,0,0,1.523.549Z" transform="translate(-630.363 -117.543)"/>
    <path id="Контур_34" data-name="Контур 34" d="M801.569,126.327l.212,2.451a7.09,7.09,0,0,1,5.964-2.839,5.955,5.955,0,0,1,4.874,1.95q1.61,1.95,1.671,5.869v13.454h-6.524V134.026a3.5,3.5,0,0,0-.637-2.324,3,3,0,0,0-2.316-.743,3.1,3.1,0,0,0-2.839,1.5v14.748H795.47V126.327Z" transform="translate(-690.794 -117.543)"/>
    <path id="Контур_35" data-name="Контур 35" d="M913.62,117.811l3.223-17.621h6.717l-5.964,28.1h-7.028l-3.759-16.022-3.688,16.022h-7.009l-5.983-28.1h6.736l3.223,17.621,3.86-17.621H909.7Z" transform="translate(-760.341 -98.625)" fill="#00acda"/>
    <path id="Контур_36" data-name="Контур 36" d="M1019.624,136.53a12.35,12.35,0,0,1,1.215-5.571,8.706,8.706,0,0,1,3.494-3.754,10.526,10.526,0,0,1,5.349-1.313,9.6,9.6,0,0,1,7.391,2.905,11.143,11.143,0,0,1,2.7,7.9v.233a10.808,10.808,0,0,1-2.714,7.75,9.634,9.634,0,0,1-7.344,2.865,9.748,9.748,0,0,1-7.163-2.674,10.447,10.447,0,0,1-2.918-7.245Zm6.506.406a7.761,7.761,0,0,0,.907,4.245,3.022,3.022,0,0,0,2.682,1.35q3.476,0,3.552-5.346v-.655q0-5.619-3.59-5.616-3.263,0-3.534,4.844Z" transform="translate(-855.478 -117.505)" fill="#00acda"/>
    <path id="Контур_37" data-name="Контур 37" d="M1119.146,132.212l-2.144-.157q-3.069,0-3.937,1.931v13.223h-6.505V126.325h6.1l.212,2.682a5.041,5.041,0,0,1,4.574-3.07,6.37,6.37,0,0,1,1.815.231Z" transform="translate(-919.351 -117.54)" fill="#00acda"/>
    <path id="Контур_38" data-name="Контур 38" d="M1171.346,116.18l-1.833,1.833v5.945H1163V94.29h6.505v15.751l.656-.868,4.9-6.1h7.8l-7.314,8.588,7.8,12.3h-7.45Z" transform="translate(-960.817 -94.29)" fill="#00acda"/>
    <path id="Контур_39" data-name="Контур 39" d="M407.7,257.08h11.8v5.213H400.92v-28.1h6.773Z" transform="translate(-400.92 -197.074)"/>
    <path id="Контур_40" data-name="Контур 40" d="M477.464,270.53a12.305,12.305,0,0,1,1.215-5.571,8.673,8.673,0,0,1,3.494-3.754,10.514,10.514,0,0,1,5.346-1.313,9.6,9.6,0,0,1,7.391,2.905,11.159,11.159,0,0,1,2.7,7.9v.233a10.82,10.82,0,0,1-2.711,7.75,9.615,9.615,0,0,1-7.344,2.865,9.741,9.741,0,0,1-7.163-2.674,10.465,10.465,0,0,1-2.918-7.248Zm6.508.414a7.772,7.772,0,0,0,.907,4.245,3.017,3.017,0,0,0,2.685,1.35q3.475,0,3.55-5.346v-.663q0-5.619-3.59-5.616-3.263,0-3.531,4.844Z" transform="translate(-457.155 -215.955)"/>
    <path id="Контур_41" data-name="Контур 41" d="M561.321,270.594a14.109,14.109,0,0,1,1.043-5.6,8.4,8.4,0,0,1,2.993-3.754,7.88,7.88,0,0,1,4.534-1.327,6.272,6.272,0,0,1,5.1,2.2l.231-1.812h5.908v20.091a8.819,8.819,0,0,1-1.284,4.8,8.245,8.245,0,0,1-3.714,3.128,13.653,13.653,0,0,1-5.635,1.09,11.752,11.752,0,0,1-4.449-.87,8.039,8.039,0,0,1-3.292-2.258l2.722-3.815a5.954,5.954,0,0,0,4.775,2.141q4.322,0,4.322-4.439v-.655a6.1,6.1,0,0,1-4.728,2.064,7.551,7.551,0,0,1-6.176-2.918,12.116,12.116,0,0,1-2.356-7.826Zm6.524.406a7.429,7.429,0,0,0,.966,4.064,3.04,3.04,0,0,0,2.7,1.494,3.457,3.457,0,0,0,3.07-1.409v-8.782a3.355,3.355,0,0,0-3.03-1.427,3.067,3.067,0,0,0-2.722,1.552A8.487,8.487,0,0,0,567.844,271Z" transform="translate(-518.758 -215.973)"/>
    <path id="Контур_42" data-name="Контур 42" d="M649.747,232.336a2.918,2.918,0,0,1,1-2.279,4.274,4.274,0,0,1,5.211,0,3.083,3.083,0,0,1,0,4.555,4.263,4.263,0,0,1-5.211,0A2.9,2.9,0,0,1,649.747,232.336Zm6.9,26.265h-6.513V237.722h6.524Z" transform="translate(-583.731 -193.387)"/>
    <path id="Контур_43" data-name="Контур 43" d="M698.642,275.388a1.491,1.491,0,0,0-.868-1.327,13.533,13.533,0,0,0-3.3-1.043,15.013,15.013,0,0,1-4.014-1.419,6.7,6.7,0,0,1-2.414-2.122,5.1,5.1,0,0,1-.838-2.892,5.742,5.742,0,0,1,2.388-4.728A9.837,9.837,0,0,1,695.811,260a10.8,10.8,0,0,1,6.633,1.873,5.875,5.875,0,0,1,2.507,4.921H698.43q0-2.507-2.653-2.51a2.623,2.623,0,0,0-1.719.57,1.766,1.766,0,0,0-.7,1.419,1.621,1.621,0,0,0,.849,1.409,8.065,8.065,0,0,0,2.714.886,23.783,23.783,0,0,1,3.282.814q4.709,1.624,4.709,5.81a5.466,5.466,0,0,1-2.539,4.651,11.152,11.152,0,0,1-6.572,1.8,11.333,11.333,0,0,1-4.775-.966,7.99,7.99,0,0,1-3.292-2.634,5.944,5.944,0,0,1-1.178-3.494h6.081a2.538,2.538,0,0,0,.966,2.122,3.979,3.979,0,0,0,2.372.666,3.179,3.179,0,0,0,2-.531A1.725,1.725,0,0,0,698.642,275.388Z" transform="translate(-610.779 -216.037)"/>
    <path id="Контур_44" data-name="Контур 44" d="M770.442,241.82v5.195h3.449v4.51h-3.449v9.551a2.447,2.447,0,0,0,.424,1.642,2.246,2.246,0,0,0,1.679.462,9.552,9.552,0,0,0,1.621-.114v4.651a11.969,11.969,0,0,1-3.661.568,6.791,6.791,0,0,1-4.961-1.592,6.47,6.47,0,0,1-1.592-4.8V251.53H761.3v-4.51h2.653v-5.2Z" transform="translate(-665.69 -202.68)"/>
    <path id="Контур_45" data-name="Контур 45" d="M818.167,232.336a2.9,2.9,0,0,1,1.005-2.279,4.274,4.274,0,0,1,5.211,0,3.088,3.088,0,0,1,0,4.555,4.263,4.263,0,0,1-5.211,0A2.9,2.9,0,0,1,818.167,232.336Zm6.911,26.265h-6.524V237.722h6.524Z" transform="translate(-707.469 -193.387)"/>
    <path id="Контур_46" data-name="Контур 46" d="M865.865,276.636a2.894,2.894,0,0,0,2.122-.743,2.721,2.721,0,0,0,.735-2.075h6.1a7.2,7.2,0,0,1-2.462,5.638,10.351,10.351,0,0,1-13.52-.658q-2.624-2.857-2.629-7.906v-.265a12.73,12.73,0,0,1,1.167-5.59,8.516,8.516,0,0,1,3.369-3.714,10.04,10.04,0,0,1,5.211-1.3,9.042,9.042,0,0,1,6.468,2.258,8,8,0,0,1,2.388,6.121h-6.1a3.557,3.557,0,0,0-.8-2.491,2.73,2.73,0,0,0-2.122-.868q-2.526,0-2.953,3.223a22.687,22.687,0,0,0-.135,2.818,8.913,8.913,0,0,0,.753,4.362A2.582,2.582,0,0,0,865.865,276.636Z" transform="translate(-735.42 -216.051)"/>
  </g>
  <circle id="Эллипс_13" data-name="Эллипс 13" cx="7.306" cy="7.306" r="7.306" transform="translate(47.598 4.391)" fill="#00acda"/>
  <circle id="Эллипс_14" data-name="Эллипс 14" cx="7.306" cy="7.306" r="7.306" transform="translate(47.598 47.63)" fill="#00acda"/>
  <circle id="Эллипс_15" data-name="Эллипс 15" cx="7.306" cy="7.306" r="7.306" transform="translate(1.366 47.63)" fill="#00acda"/>
  <circle id="Эллипс_16" data-name="Эллипс 16" cx="7.306" cy="7.306" r="7.306" transform="translate(1.377 4.391)" fill="#00acda"/>
  <path id="Контур_47" data-name="Контур 47" d="M239.292,119.862a29.183,29.183,0,0,1-8.508-18.982H224.39l-1.99.1a37.6,37.6,0,0,0,35.89,35.771v-8.368a29.1,29.1,0,0,1-19-8.516Z" transform="translate(-194.787 -99.132)" fill="#00acda"/>
  <path id="Контур_48" data-name="Контур 48" d="M233.41,215.547A37.617,37.617,0,0,0,222.4,240.4l2.388.114H230.8A29.324,29.324,0,0,1,258.4,212.926V204.55A37.551,37.551,0,0,0,233.41,215.547Z" transform="translate(-194.787 -175.298)" fill="url(#linear-gradient)"/>
  <path id="Контур_49" data-name="Контур 49" d="M145.962,100.52a29.329,29.329,0,0,1-27.592,27.573v8.389a37.71,37.71,0,0,0,35.983-35.962Z" transform="translate(-118.357 -98.867)" fill="url(#linear-gradient-2)"/>
  <path id="Контур_50" data-name="Контур 50" d="M151.759,240.745h2.449a37.835,37.835,0,0,0-10.976-24.915,37.445,37.445,0,0,0-24.912-10.97v8.368a29.244,29.244,0,0,1,27.507,27.517Z" transform="translate(-118.32 -175.525)" fill="#00acda"/>
</svg>
