<svg xmlns="http://www.w3.org/2000/svg" xmlns:xlink="http://www.w3.org/1999/xlink" width="126.339" height="97.966" viewBox="0 0 126.339 97.966">
  <defs>
    <linearGradient id="linear-gradient" y1="0.5" x2="1" y2="0.5" gradientUnits="objectBoundingBox">
      <stop offset="0" stop-color="#00acda"/>
      <stop offset="1" stop-color="#fff"/>
    </linearGradient>
    <linearGradient id="linear-gradient-2" y1="0.5" x2="1" y2="0.5" gradientUnits="objectBoundingBox">
      <stop offset="0" stop-color="#00acda"/>
      <stop offset="0.2" stop-color="#2dbbe1"/>
      <stop offset="0.63" stop-color="#9ddff1"/>
      <stop offset="1" stop-color="#fff"/>
    </linearGradient>
  </defs>
  <g id="HWL_gradient_pionowy" transform="translate(0.04)">
    <g id="Сгруппировать_1" data-name="Сгруппировать 1" transform="translate(-0.04 56.271)">
      <path id="Контур_9" data-name="Контур 9" d="M99.341,470.185H95.517v-6.663H89.851v6.663H86V454.23h3.845v6.326h5.666V454.23h3.824Z" transform="translate(-86 -453.341)"/>
      <path id="Контур_10" data-name="Контур 10" d="M196.34,492.015a3.8,3.8,0,0,1-3.163,1.506,3.721,3.721,0,0,1-2.954-1.134,4.819,4.819,0,0,1-1-3.259v-7.681h3.693v7.7a1.327,1.327,0,0,0,1.479,1.524,1.932,1.932,0,0,0,1.807-.9V481.44h3.714V493.3H196.45Z" transform="translate(-173.674 -476.453)"/>
      <path id="Контур_11" data-name="Контур 11" d="M277.283,480.217l.12,1.392A4.085,4.085,0,0,1,280.789,480a3,3,0,0,1,3.035,1.786A3.95,3.95,0,0,1,287.309,480q3.6,0,3.7,4.368v7.715h-3.7v-7.493a2.31,2.31,0,0,0-.3-1.327,1.312,1.312,0,0,0-1.118-.416,1.75,1.75,0,0,0-1.633.974l.011.151v8.1h-3.71v-7.46a2.344,2.344,0,0,0-.3-1.348,1.306,1.306,0,0,0-1.128-.416,1.773,1.773,0,0,0-1.622.975v8.252H273.82V480.217Z" transform="translate(-245.531 -475.23)"/>
      <path id="Контур_12" data-name="Контур 12" d="M405.588,492.073a4.191,4.191,0,0,1-.348-1.063,3.428,3.428,0,0,1-2.85,1.282,4.207,4.207,0,0,1-2.85-1.014,3.223,3.223,0,0,1-1.173-2.542,3.317,3.317,0,0,1,1.425-2.916,7.248,7.248,0,0,1,4.142-.985h1.139V484.2q0-1.64-1.413-1.64a1.155,1.155,0,0,0-1.315,1.3h-3.693a3.313,3.313,0,0,1,1.462-2.791A6.122,6.122,0,0,1,403.847,480a5.389,5.389,0,0,1,3.583,1.107,3.849,3.849,0,0,1,1.348,3.035v5.249a5.348,5.348,0,0,0,.5,2.5v.187Zm-2.312-2.41a2.064,2.064,0,0,0,1.146-.3,1.85,1.85,0,0,0,.651-.669V486.8H404q-1.929,0-1.929,1.732a1.054,1.054,0,0,0,.34.816,1.226,1.226,0,0,0,.871.312Z" transform="translate(-351.32 -475.23)"/>
      <path id="Контур_13" data-name="Контур 13" d="M484.043,480.217l.12,1.392A4.023,4.023,0,0,1,487.549,480a3.381,3.381,0,0,1,2.767,1.107,5.281,5.281,0,0,1,.949,3.332v7.638h-3.7v-7.487a1.99,1.99,0,0,0-.362-1.321,1.7,1.7,0,0,0-1.316-.422,1.761,1.761,0,0,0-1.61.854v8.373H480.58V480.217Z" transform="translate(-421.15 -475.23)"/>
      <path id="Контур_14" data-name="Контур 14" d="M588.575,464.234l1.83-10h3.814l-3.386,15.955h-3.99l-2.136-9.1-2.094,9.1h-3.978l-3.4-15.955h3.824l1.83,10,2.191-10h3.264Z" transform="translate(-501.553 -453.341)" fill="#00acda"/>
      <path id="Контур_15" data-name="Контур 15" d="M704.733,486.024a7.009,7.009,0,0,1,.69-3.163,4.951,4.951,0,0,1,1.984-2.131,5.969,5.969,0,0,1,3.035-.741,5.454,5.454,0,0,1,4.2,1.649,6.326,6.326,0,0,1,1.535,4.487v.133a6.139,6.139,0,0,1-1.541,4.4,5.462,5.462,0,0,1-4.169,1.627,5.537,5.537,0,0,1-4.067-1.517,5.929,5.929,0,0,1-1.657-4.115Zm3.693.23a4.413,4.413,0,0,0,.515,2.41,1.715,1.715,0,0,0,1.523.768q1.973,0,2.017-3.036v-.372q0-3.189-2.039-3.189-1.849,0-2,2.75Z" transform="translate(-611.542 -475.219)" fill="#00acda"/>
      <path id="Контур_16" data-name="Контур 16" d="M798.825,483.556l-1.217-.087a2.186,2.186,0,0,0-2.235,1.1v7.507H791.68V480.213h3.464l.12,1.523a2.855,2.855,0,0,1,2.6-1.74,3.557,3.557,0,0,1,1.03.133Z" transform="translate(-685.394 -475.227)" fill="#00acda"/>
      <path id="Контур_17" data-name="Контур 17" d="M852.874,460.757l-1.041,1.041v3.375H848.14V448.33h3.693v8.942l.372-.493,2.783-3.464h4.427l-4.152,4.875,4.427,6.981H855.46Z" transform="translate(-733.35 -448.33)" fill="#00acda"/>
      <path id="Контур_18" data-name="Контур 18" d="M89.851,601.225h6.692v2.96H86V588.23h3.845Z" transform="translate(-86 -567.159)"/>
      <path id="Контур_19" data-name="Контур 19" d="M162.563,620.024a6.99,6.99,0,0,1,.691-3.163,4.932,4.932,0,0,1,1.984-2.131,5.968,5.968,0,0,1,3.035-.741,5.446,5.446,0,0,1,4.2,1.649A6.344,6.344,0,0,1,174,620.125v.133a6.143,6.143,0,0,1-1.539,4.4,5.461,5.461,0,0,1-4.171,1.627,5.536,5.536,0,0,1-4.067-1.517,5.929,5.929,0,0,1-1.657-4.115Zm3.693.23a4.413,4.413,0,0,0,.515,2.41,1.715,1.715,0,0,0,1.523.768q1.975,0,2.017-3.036v-.372q0-3.189-2.038-3.188-1.853,0-2,2.75Z" transform="translate(-151.031 -589.037)"/>
      <path id="Контур_20" data-name="Контур 20" d="M246.418,620.052a8,8,0,0,1,.592-3.178,4.755,4.755,0,0,1,1.7-2.127,4.462,4.462,0,0,1,2.574-.753,3.559,3.559,0,0,1,2.893,1.25l.131-1.03h3.354v11.406a5,5,0,0,1-.729,2.723,4.681,4.681,0,0,1-2.109,1.776,7.75,7.75,0,0,1-3.2.616,6.7,6.7,0,0,1-2.526-.492,4.561,4.561,0,0,1-1.869-1.283l1.548-2.163a3.38,3.38,0,0,0,2.711,1.215,2.2,2.2,0,0,0,2.454-2.52v-.372a3.464,3.464,0,0,1-2.684,1.172,4.284,4.284,0,0,1-3.506-1.657,6.891,6.891,0,0,1-1.337-4.443Zm3.7.229a4.218,4.218,0,0,0,.548,2.307,1.728,1.728,0,0,0,1.533.849,1.96,1.96,0,0,0,1.743-.8v-4.987a1.911,1.911,0,0,0-1.72-.81,1.739,1.739,0,0,0-1.545.881,4.837,4.837,0,0,0-.559,2.559Z" transform="translate(-222.25 -589.042)"/>
      <path id="Контур_21" data-name="Контур 21" d="M334.856,585.008a1.657,1.657,0,0,1,.569-1.294,2.426,2.426,0,0,1,2.958,0,1.75,1.75,0,0,1,0,2.586,2.42,2.42,0,0,1-2.958,0A1.648,1.648,0,0,1,334.856,585.008Zm3.916,14.911h-3.7V588.065h3.7Z" transform="translate(-297.374 -562.896)"/>
      <path id="Контур_22" data-name="Контур 22" d="M378.529,622.753a.847.847,0,0,0-.492-.753,7.647,7.647,0,0,0-1.874-.592,8.522,8.522,0,0,1-2.279-.806,3.8,3.8,0,0,1-1.371-1.2,2.894,2.894,0,0,1-.471-1.633,3.279,3.279,0,0,1,1.348-2.69,5.529,5.529,0,0,1,3.529-1.054,6.131,6.131,0,0,1,3.765,1.063,3.341,3.341,0,0,1,1.428,2.788h-3.7q0-1.423-1.506-1.425a1.49,1.49,0,0,0-.976.324,1,1,0,0,0-.395.806.92.92,0,0,0,.482.8,4.75,4.75,0,0,0,1.539.5,13.273,13.273,0,0,1,1.859.47q2.673.922,2.673,3.3a3.106,3.106,0,0,1-1.441,2.642,6.309,6.309,0,0,1-3.731,1.018,6.434,6.434,0,0,1-2.711-.548,4.537,4.537,0,0,1-1.863-1.49,3.374,3.374,0,0,1-.669-1.984h3.452a1.442,1.442,0,0,0,.547,1.2,2.259,2.259,0,0,0,1.348.378,1.8,1.8,0,0,0,1.134-.3A.979.979,0,0,0,378.529,622.753Z" transform="translate(-328.644 -589.065)"/>
      <path id="Контур_23" data-name="Контур 23" d="M451.583,595.87v2.948h1.95v2.561h-1.95V606.8a1.4,1.4,0,0,0,.241.931,1.282,1.282,0,0,0,.953.263,5.42,5.42,0,0,0,.92-.066v2.646a6.793,6.793,0,0,1-2.081.318,3.855,3.855,0,0,1-2.817-.9,3.676,3.676,0,0,1-.9-2.729v-5.878H446.39v-2.56H447.9V595.87Z" transform="translate(-392.11 -573.648)"/>
      <path id="Контур_24" data-name="Контур 24" d="M503.276,585.007a1.657,1.657,0,0,1,.569-1.294,2.428,2.428,0,0,1,2.96,0,1.753,1.753,0,0,1,0,2.586,2.422,2.422,0,0,1-2.96,0A1.648,1.648,0,0,1,503.276,585.007Zm3.924,14.911h-3.7V588.064h3.7Z" transform="translate(-440.428 -562.895)"/>
      <path id="Контур_25" data-name="Контур 25" d="M546.8,623.461a1.647,1.647,0,0,0,1.2-.422,1.554,1.554,0,0,0,.417-1.179h3.464a4.087,4.087,0,0,1-1.4,3.2,5.876,5.876,0,0,1-7.675-.374,6.405,6.405,0,0,1-1.492-4.494v-.151a7.229,7.229,0,0,1,.663-3.174,4.844,4.844,0,0,1,1.913-2.109,5.724,5.724,0,0,1,2.958-.739,5.129,5.129,0,0,1,3.672,1.283,4.54,4.54,0,0,1,1.356,3.473h-3.464a2.02,2.02,0,0,0-.452-1.414,1.55,1.55,0,0,0-1.2-.492q-1.435,0-1.676,1.83a12.882,12.882,0,0,0-.077,1.6,5.061,5.061,0,0,0,.428,2.476A1.481,1.481,0,0,0,546.8,623.461Z" transform="translate(-472.742 -589.065)"/>
    </g>
    <g id="Сгруппировать_2" data-name="Сгруппировать 2" transform="translate(36.796 0)">
      <circle id="Эллипс_9" data-name="Эллипс 9" cx="5.387" cy="5.387" r="5.387" transform="translate(35.107 2.021)" fill="#00acda"/>
      <circle id="Эллипс_10" data-name="Эллипс 10" cx="5.387" cy="5.387" r="5.387" transform="translate(35.107 33.912)" fill="#00acda"/>
      <circle id="Эллипс_11" data-name="Эллипс 11" cx="5.387" cy="5.387" r="5.387" transform="translate(1.009 33.912)" fill="#00acda"/>
      <circle id="Эллипс_12" data-name="Эллипс 12" cx="5.387" cy="5.387" r="5.387" transform="translate(1.017 2.021)" fill="#00acda"/>
      <path id="Контур_26" data-name="Контур 26" d="M478.247,89.157a21.526,21.526,0,0,1-6.281-14.007h-4.71l-1.467.071a27.733,27.733,0,0,0,26.471,26.388V95.433A21.473,21.473,0,0,1,478.247,89.157Z" transform="translate(-445.424 -75.085)" fill="#00acda"/>
      <path id="Контур_27" data-name="Контур 27" d="M473.91,217.991a27.74,27.74,0,0,0-8.12,18.331l1.755.084h4.439a21.621,21.621,0,0,1,20.347-20.342V209.88A27.694,27.694,0,0,0,473.91,217.991Z" transform="translate(-445.424 -189.523)" fill="url(#linear-gradient)"/>
      <path id="Контур_28" data-name="Контур 28" d="M350.929,74.72A21.631,21.631,0,0,1,330.57,95.053v6.187a27.777,27.777,0,0,0,26.555-26.52Z" transform="translate(-330.57 -74.72)" fill="url(#linear-gradient-2)"/>
      <path id="Контур_29" data-name="Контур 29" d="M355.233,236.746h1.807a27.9,27.9,0,0,0-8.1-18.375,27.612,27.612,0,0,0-18.375-8.091v6.175a21.563,21.563,0,0,1,20.294,20.291Z" transform="translate(-330.57 -189.863)" fill="#00acda"/>
    </g>
  </g>
</svg>
