<svg xmlns="http://www.w3.org/2000/svg" width="55" height="55" viewBox="0 0 55 55">
  <g id="cleaning_icon" transform="translate(-16 -2277)">
    <g id="Эллипс_66" data-name="Эллипс 66" transform="translate(16 2277)" fill="#00acda" stroke="#00acda" stroke-width="3">
      <circle cx="27.5" cy="27.5" r="27.5" stroke="none"/>
      <circle cx="27.5" cy="27.5" r="26" fill="none"/>
    </g>
    <g id="layer1" transform="translate(2030.446 4438.84)">
      <g id="g882" transform="translate(-1998.859 -2152.037)">
        <g id="g2201" transform="translate(0 0)">
          <g id="g1933" transform="translate(0 4.71)">
            <g id="g1260">
              <g id="g1268">
                <path id="rect1213" d="M-1989.483-1972.873l-4.714,0-4.662,11.542,0,9.5,14.043,0,0-9.5Zm.746,10.571a4.369,4.369,0,0,1,2.919,1.648l0,8.142-12.039,0,0-8.142C-1993.052-1958.757-1991.268-1962.376-1988.737-1962.3Z" transform="translate(1998.859 1981.974)" fill="#fff" fill-rule="evenodd"/>
                <rect id="rect1219" width="3.728" height="2.068" transform="translate(5.154 7.034)" fill="#fff"/>
                <rect id="rect1219-9" width="12.716" height="2.068" transform="translate(2.778)" fill="#fff"/>
                <path id="rect1219-9-2" d="M-1952.2-2064.128l-10.622,0,2.963,5.067,2.528.088c.258-3.425,2.151-4.93,5.131-5.159Z" transform="translate(1965.6 2066.195)" fill="#fff" fill-rule="evenodd"/>
                <path id="path1252" d="M-1887.157-2067.269c-.631,2.974.464,3.662,1.778,6.03.094.251-.493.484-.613.255-.92-1.349-1.956-2.557-1.956-2.557-.755-1.077-1.91-.875-2.988-.918a5.852,5.852,0,0,1,3.778-2.81Z" transform="translate(1899.255 2069.094)" fill="#fff" fill-rule="evenodd"/>
              </g>
            </g>
          </g>
          <circle id="circle42" cx="3.53" cy="3.53" r="3.53" transform="translate(21.401 0.057) rotate(-0.463)" fill="#fff"/>
          <path id="polygon58" d="M-1783.283-2096.881l-6.571-1.378-.028-1.421,6.8-1.08Z" transform="translate(1805.991 2104.713)" fill="#fff" fill-rule="evenodd"/>
          <circle id="circle60" cx="3.53" cy="3.53" r="3.53" transform="translate(18.871 10.364) rotate(-81.245)" fill="#fff"/>
          <circle id="circle62" cx="2.754" cy="2.754" r="2.754" transform="translate(24.006 3.038)" fill="#fff"/>
          <circle id="circle62-7" cx="1.377" cy="1.377" r="1.377" transform="translate(27.1 2.129) rotate(-0.463)" fill="#fff"/>
        </g>
      </g>
    </g>
  </g>
</svg>
