<svg xmlns="http://www.w3.org/2000/svg" width="64" height="64" viewBox="0 0 64 64">
  <g id="individual_icon" transform="translate(-145.714 -1684)">
    <g id="Сгруппировать_240" data-name="Сгруппировать 240" transform="translate(129.714 370)">
      <g id="Эллипс_87" data-name="Эллипс 87" transform="translate(16 1314)" fill="#fff" stroke="#00acda" stroke-width="2">
        <circle cx="32" cy="32" r="32" stroke="none"/>
        <circle cx="32" cy="32" r="31" fill="none"/>
      </g>
    </g>
    <g id="Сгруппировать_95" data-name="Сгруппировать 95" transform="translate(163.537 1701.248)">
      <path id="Контур_84" data-name="Контур 84" d="M4098.967-1998.281a5.718,5.718,0,0,0,.675-5.578,6.6,6.6,0,0,0-5.3-3.982,4.445,4.445,0,0,0-2.25-2.525,7.358,7.358,0,0,0-5.947-.45,6.392,6.392,0,0,0-5.333-.063,5.957,5.957,0,0,0-3.085,2.869,6.49,6.49,0,0,0-5.061,3.713,6.163,6.163,0,0,0,.5,6.135,6.466,6.466,0,0,0,.473,8.077c.524,3.262,2.257,5.117,5.155,5.518,2.311,2.114,4.745,2.851,7.241,2.2a4.531,4.531,0,0,0,2.042.445,6.815,6.815,0,0,0,2.552-.524,5.114,5.114,0,0,0,2.783-2.39,4.641,4.641,0,0,0,3.206-1.164,5.268,5.268,0,0,0,1.767-3.566A8.359,8.359,0,0,0,4100.3-1994a5.5,5.5,0,0,0-1.333-4.278Zm-19.41,12.583-.164-.155-.224-.025c-2.465-.272-3.806-1.725-4.221-4.573a4.114,4.114,0,0,1,1.083-2.61,2.9,2.9,0,0,1,2.213-1.062.673.673,0,0,0,.673-.673.673.673,0,0,0-.673-.673,4.243,4.243,0,0,0-3.218,1.513,5.958,5.958,0,0,0-1.111,1.845c-.94-1.822-.731-3.7.627-5.691l.276-.4-.3-.387a4.81,4.81,0,0,1-.633-5.131,5.1,5.1,0,0,1,4.351-2.973l.495-.017.131-.477a4.351,4.351,0,0,1,2.486-2.451,5.1,5.1,0,0,1,4.1-.008v26.036c-2.014.44-3.947-.244-5.892-2.082Zm17.727-4.657a4.054,4.054,0,0,1-2.3.493h-.016a.673.673,0,0,0-.673.674.673.673,0,0,0,.658.673c.086,0,.17,0,.255,0a5.8,5.8,0,0,0,1.649-.208,4.009,4.009,0,0,1-1.125,1.7,3.294,3.294,0,0,1-2.688.8l-.6-.082-.142.592a3.448,3.448,0,0,1-2.177,2.012,4.562,4.562,0,0,1-3.326.193v-26.115a6.083,6.083,0,0,1,4.651.436,2.934,2.934,0,0,1,1.675,2.051l.074.537.54.042a5.263,5.263,0,0,1,4.657,3.2,4.415,4.415,0,0,1-.819,4.664c-.092.09-.18.177-.265.261a4.7,4.7,0,0,1-3.584,1.638.673.673,0,0,0-.587.749.673.673,0,0,0,.667.593.673.673,0,0,0,.081-.005c2.386-.287,3.154-.831,4.169-1.82,1.672,1.988.921,4.948-.771,6.923Z" transform="translate(-4071.975 2011.432)" fill="#00acda"/>
      <path id="Контур_85" data-name="Контур 85" d="M4159.354-1861.483a.673.673,0,0,0-.294.905.673.673,0,0,0,.905.295l.014-.007a2.735,2.735,0,0,0,1.456-2.9,2.951,2.951,0,0,0-2.724-2.344.673.673,0,0,0-.75.586.673.673,0,0,0,.577.749,1.65,1.65,0,0,1,1.571,1.245,1.376,1.376,0,0,1-.754,1.472Z" transform="translate(-4150.238 1878.635)" fill="#00acda"/>
      <path id="Контур_86" data-name="Контур 86" d="M4253.1-1947.059a1.653,1.653,0,0,1,2.448.206c.9.908,1.379,2.507.621,3.351a.673.673,0,0,0,.04.951.673.673,0,0,0,.951-.04l.01-.011c1.321-1.469.682-3.843-.667-5.2a2.965,2.965,0,0,0-4.3-.263.674.674,0,0,0-.056.95.674.674,0,0,0,.951.056Z" transform="translate(-4235.821 1954.482)" fill="#00acda"/>
      <path id="Контур_87" data-name="Контур 87" d="M4263.216-1863.709a2.152,2.152,0,0,1-2.262-1.187,1.278,1.278,0,0,1,.381-1.627.673.673,0,0,0,.088-.948.673.673,0,0,0-.948-.088,2.62,2.62,0,0,0-.742,3.231,3.524,3.524,0,0,0,3.123,2,3.385,3.385,0,0,0,.6-.054.673.673,0,0,0,.55-.777.673.673,0,0,0-.777-.55l-.011,0Z" transform="translate(-4242.634 1880.615)" fill="#00acda"/>
      <path id="Контур_88" data-name="Контур 88" d="M4133.974-1941.244a.674.674,0,0,0-.125-.944,1.5,1.5,0,0,1-.637-1.472,2.8,2.8,0,0,1,1.7-2.048,1.947,1.947,0,0,1,2.033.311.673.673,0,0,0,.947-.1.673.673,0,0,0-.1-.947h0a3.308,3.308,0,0,0-3.374-.516,4.165,4.165,0,0,0-2.542,3.114,2.834,2.834,0,0,0,1.151,2.727.673.673,0,0,0,.944-.125Z" transform="translate(-4126.474 1952.973)" fill="#00acda"/>
      <path id="Контур_89" data-name="Контур 89" d="M4263.978-1787.718a3.066,3.066,0,0,0-3.414.788,2.556,2.556,0,0,0-.211,3.023.674.674,0,0,0,.915.266.674.674,0,0,0,.266-.914l-.008-.013a1.23,1.23,0,0,1,.061-1.485,1.735,1.735,0,0,1,1.917-.4.673.673,0,0,0,.865-.4.673.673,0,0,0-.39-.862Z" transform="translate(-4243.085 1807.992)" fill="#00acda"/>
      <path id="Контур_90" data-name="Контур 90" d="M4142.4-1790.886a3.414,3.414,0,0,0-4.4.522.674.674,0,0,0,.083.948.674.674,0,0,0,.949-.083l.005-.007a2.142,2.142,0,0,1,2.715-.2,2.438,2.438,0,0,1,1.386,2.805.673.673,0,0,0,.42.854.673.673,0,0,0,.854-.42l0-.012a3.744,3.744,0,0,0-2.012-4.406Z" transform="translate(-4131.923 1811.189)" fill="#00acda"/>
    </g>
  </g>
</svg>
