<svg xmlns="http://www.w3.org/2000/svg" width="55" height="55" viewBox="0 0 55 55">
  <g id="cross-docking" transform="translate(-63.972 -2247.096)">
    <g id="Эллипс_67" data-name="Эллипс 67" transform="translate(63.972 2247.096)" fill="#00acda" stroke="#00acda" stroke-width="3">
      <circle cx="27.5" cy="27.5" r="27.5" stroke="none"/>
      <circle cx="27.5" cy="27.5" r="26" fill="none"/>
    </g>
    <path id="cross_doking_icon" d="M1174.309-2131.292l-3.072-1.774-3.072-1.774a.412.412,0,0,0-.563.151.41.41,0,0,0-.055.209v1.621h-6.726v-6.731h1.613a.411.411,0,0,0,.415-.406.411.411,0,0,0-.055-.21l-1.774-3.073-1.774-3.072a.412.412,0,0,0-.563-.15.412.412,0,0,0-.15.15l-1.774,3.072-1.774,3.073a.411.411,0,0,0,.15.562.405.405,0,0,0,.21.055h1.629v6.727h-6.734v-1.621a.411.411,0,0,0-.407-.415.409.409,0,0,0-.21.055l-3.072,1.774-3.07,1.777a.412.412,0,0,0-.15.563.413.413,0,0,0,.15.15l3.072,1.774,3.073,1.773a.411.411,0,0,0,.562-.15.409.409,0,0,0,.055-.21v-1.618h6.727v6.727h-1.631a.411.411,0,0,0-.415.407.413.413,0,0,0,.055.21l1.774,3.072,1.774,3.072a.412.412,0,0,0,.563.15.412.412,0,0,0,.15-.15l1.774-3.072,1.774-3.072a.411.411,0,0,0-.15-.562.408.408,0,0,0-.21-.055h-1.612v-6.727h6.726v1.621a.412.412,0,0,0,.408.415.411.411,0,0,0,.209-.055l3.072-1.774,3.08-1.774a.412.412,0,0,0,.155-.562A.412.412,0,0,0,1174.309-2131.292Z" transform="translate(-1067.424 4405.532)" fill="#fff"/>
  </g>
</svg>
