<svg xmlns="http://www.w3.org/2000/svg" width="64" height="64" viewBox="0 0 64 64">
  <g id="Сгруппировать_402" data-name="Сгруппировать 402" transform="translate(-8393 -5836)">
    <g id="Сгруппировать_242" data-name="Сгруппировать 242" transform="translate(8377 4522)">
      <g id="Эллипс_87" data-name="Эллипс 87" transform="translate(16 1314)" fill="#fff" stroke="#00acda" stroke-width="2">
        <circle cx="32" cy="32" r="32" stroke="none"/>
        <circle cx="32" cy="32" r="31" fill="none"/>
      </g>
    </g>
    <g id="Сгруппировать_91" data-name="Сгруппировать 91" transform="translate(8402 5852)">
      <path id="Контур_76" data-name="Контур 76" d="M2130-2125.522v0l-.754.762a3.973,3.973,0,0,0-5.251.462l-.145.145c-.041-.046-.081-.093-.123-.136a3.9,3.9,0,0,0-5.226-.1l-.506-.506,0,0-4.675-4.675-12.646,12.646,4.675,4.675,1.9-1.9,5.618,5.618c-.051.043-.1.088-.15.137a2.166,2.166,0,0,0-.107,3.054,2.04,2.04,0,0,0,1.846.537,2,2,0,0,0,1.514,2.383,2,2,0,0,0,.869,0,2,2,0,0,0,1.514,2.383,2,2,0,0,0,.869,0,2.04,2.04,0,0,0,.537,1.846,2.166,2.166,0,0,0,3.054-.107,2.381,2.381,0,0,0,.163-.181h0a2.2,2.2,0,0,0,2.753-.352,2.286,2.286,0,0,0,.668-1.888,2.324,2.324,0,0,0,2.556-2.067,2.336,2.336,0,0,0,0-.489,2.325,2.325,0,0,0,2.556-2.067,2.3,2.3,0,0,0,0-.489,2.285,2.285,0,0,0,1.888-.668,2.2,2.2,0,0,0,.359-2.742l6.261-6.26,1.769,1.769,5.015-5.015-11.788-11.788Zm-28.15,8.555,11.436-11.436,3.547,3.547L2105.4-2113.42Zm11.369,11.021a1.336,1.336,0,0,1,.066-1.885,1.335,1.335,0,0,1,1.885-.066,1.335,1.335,0,0,1-.066,1.885,1.335,1.335,0,0,1-1.885.066Zm2.383,2.383a1.335,1.335,0,0,1,.066-1.885,1.335,1.335,0,0,1,1.885-.066,1.335,1.335,0,0,1-.066,1.885,1.335,1.335,0,0,1-1.885.066Zm2.383,2.383a1.335,1.335,0,0,1,.066-1.885,1.335,1.335,0,0,1,1.885-.066,1.336,1.336,0,0,1-.066,1.885A1.336,1.336,0,0,1,2117.987-2101.18Zm4.268,2.316a1.335,1.335,0,0,1-1.885.066,1.335,1.335,0,0,1,.066-1.885,1.335,1.335,0,0,1,1.885-.066A1.335,1.335,0,0,1,2122.254-2098.864Zm10.65-10.085a1.336,1.336,0,0,1-.067,1.885,1.335,1.335,0,0,1-1.885.066l0,0h0l-1.155-1.155-3.519-3.519-.6.6,3.519,3.519,1.157,1.156a1.335,1.335,0,0,1-.066,1.885,1.335,1.335,0,0,1-1.885.066h0l-1.156-1.157-3.519-3.519-.6.6,3.519,3.519,1.155,1.155h0l0,0h0a1.335,1.335,0,0,1-.066,1.885,1.335,1.335,0,0,1-1.885.066l0,0-4.673-4.674-.605.6,3.519,3.519,1.155,1.155.072.072,0,0a1.343,1.343,0,0,1-.132,1.812,1.348,1.348,0,0,1-1.776.162,2.07,2.07,0,0,0-.468-2.12,2.04,2.04,0,0,0-1.846-.537,2,2,0,0,0-1.514-2.383,1.99,1.99,0,0,0-.869,0,2,2,0,0,0-1.514-2.383,2,2,0,0,0-.869,0,2.04,2.04,0,0,0-.537-1.846,2.07,2.07,0,0,0-2.129-.465l-5.787-5.787h0l9.534-9.533,1.054,1.054.3-.3a3.108,3.108,0,0,1,4.382-.154c.042.042.082.089.123.136l-4.492,4.492a2.089,2.089,0,0,0-.1,2.946,1.939,1.939,0,0,0,1.452.558,2.232,2.232,0,0,0,1.494-.661l2.02-2.02,8.127,8.127h0l1.155,1.155h0l0,0Zm6.553-7.118-6.231,6.231-8.066-8.067h0a4.089,4.089,0,0,0,4.195-1.039,4.41,4.41,0,0,0,.381-.435.4.4,0,0,0-.054-.569l-.008-.006a.424.424,0,0,0-.582.1,3.416,3.416,0,0,1-.3.344,3.108,3.108,0,0,1-4.382.154c-.021-.02-.039-.042-.057-.063l-.044-.049a.4.4,0,0,0-.451-.089.453.453,0,0,0-.171.126l-2.651,2.651a1.261,1.261,0,0,1-1.778.062,1.164,1.164,0,0,1-.337-.876,1.341,1.341,0,0,1,.4-.9l5.242-5.242a3.109,3.109,0,0,1,4.383-.154.414.414,0,0,0,.584-.021v0h0l1.037-1.047Zm2.374,1.164-10.661-10.66,9.456,9.455-9.456-9.455,3.806-3.805,10.661,10.66Z" transform="translate(-2100.683 2130.537)" fill="#00acda" stroke="#00acda" stroke-width="1"/>
    </g>
  </g>
</svg>
