<svg xmlns="http://www.w3.org/2000/svg" width="64" height="64" viewBox="0 0 64 64">
  <g id="Сгруппировать_402" data-name="Сгруппировать 402" transform="translate(-8393 -5220)">
    <g id="Сгруппировать_242" data-name="Сгруппировать 242" transform="translate(8377 3906)">
      <g id="Эллипс_87" data-name="Эллипс 87" transform="translate(16 1314)" fill="#fff" stroke="#00acda" stroke-width="2">
        <circle cx="32" cy="32" r="32" stroke="none"/>
        <circle cx="32" cy="32" r="31" fill="none"/>
      </g>
    </g>
    <path id="Контур_79" data-name="Контур 79" d="M1224.9-1189.48l-13.887,3.765v-16.9l5.168-1.355v7.153l4.573-1.2v-7.153l4.273-1.12Zm1.113-17.439a.5.5,0,0,0-.011-.1c0-.009,0-.018-.007-.027a.484.484,0,0,0-.026-.074c0-.007-.006-.014-.009-.021a.477.477,0,0,0-.052-.083l-.014-.016a.506.506,0,0,0-.058-.057l-.011-.011-.01-.006a.493.493,0,0,0-.086-.052l-.006,0a.471.471,0,0,0-.069-.025l-15-4.129a.491.491,0,0,0-.259,0l-15.033,4.084a.494.494,0,0,0-.069.025l-.007,0a.49.49,0,0,0-.086.052l-.01.006-.011.011a.478.478,0,0,0-.059.058l-.014.016a.488.488,0,0,0-.053.083l-.009.021a.545.545,0,0,0-.026.075c0,.009,0,.018-.007.027a.5.5,0,0,0-.011.1h0l.086,18.005a.49.49,0,0,0,.367.472l14.947,3.887.013,0a.491.491,0,0,0,.11.014.5.5,0,0,0,.115-.015l.014,0,14.864-4.03a.49.49,0,0,0,.362-.469l.136-17.818h0Zm-15.49,3.421-13.141-3.475,4.468-1.214,13.359,3.461Zm0-7.045,13.112,3.609-3.854,1.01-13.472-3.474Zm-14.539,4.213,14.049,3.716v16.905l-13.969-3.632Z" transform="translate(7214 6450.541)" fill="#00acda"/>
  </g>
</svg>
