<svg xmlns="http://www.w3.org/2000/svg" width="64" height="64" viewBox="0 0 64 64">
  <g id="Сгруппировать_402" data-name="Сгруппировать 402" transform="translate(-8393 -4357)">
    <g id="Эллипс_87" data-name="Эллипс 87" transform="translate(8393 4357)" fill="#fff" stroke="#00acda" stroke-width="2">
      <circle cx="32" cy="32" r="32" stroke="none"/>
      <circle cx="32" cy="32" r="31" fill="none"/>
    </g>
    <g id="Сгруппировать_94" data-name="Сгруппировать 94" transform="translate(8407 4380)">
      <path id="Контур_81" data-name="Контур 81" d="M2866.889-1541.33a4.444,4.444,0,0,0-4.444,4.444,4.444,4.444,0,0,0,4.444,4.444,4.443,4.443,0,0,0,4.443-4.444,4.444,4.444,0,0,0-4.443-4.444Zm3.99,8.8a5.911,5.911,0,0,1-3.99,1.558,5.913,5.913,0,0,1-3.985-1.555,8.14,8.14,0,0,0-3.554,6.792c0,.04,0,.079.005.119H2870a8.461,8.461,0,0,1,3.2-4.5,7.781,7.781,0,0,0-2.322-2.419Z" transform="translate(-2859.35 1541.33)" fill="#00acda"/>
      <path id="Контур_82" data-name="Контур 82" d="M3192.255-1541.33a4.444,4.444,0,0,0-4.443,4.444,4.444,4.444,0,0,0,4.443,4.444,4.444,4.444,0,0,0,4.444-4.444A4.444,4.444,0,0,0,3192.255-1541.33Zm3.99,8.8a5.912,5.912,0,0,1-3.99,1.558,5.911,5.911,0,0,1-3.985-1.555,7.769,7.769,0,0,0-2.321,2.413,8.461,8.461,0,0,1,3.2,4.5h10.646c0-.04,0-.079.005-.119a8.141,8.141,0,0,0-3.548-6.795Z" transform="translate(-3163.192 1541.33)" fill="#00acda"/>
      <path id="Контур_83" data-name="Контур 83" d="M3021.339-1502.72a4.444,4.444,0,0,0-4.444,4.444,4.444,4.444,0,0,0,4.444,4.444,4.444,4.444,0,0,0,4.444-4.444A4.444,4.444,0,0,0,3021.339-1502.72Zm3.99,8.8a5.913,5.913,0,0,1-3.99,1.558,5.912,5.912,0,0,1-3.985-1.555,8.14,8.14,0,0,0-3.554,6.792c0,.04,0,.079.005.119h15.069c0-.04,0-.079.005-.119a8.14,8.14,0,0,0-3.549-6.795Z" transform="translate(-3003.038 1505.41)" fill="#00acda"/>
    </g>
  </g>
</svg>
