<svg xmlns="http://www.w3.org/2000/svg" width="64" height="64" viewBox="0 0 64 64">
  <g id="involvement_icon" transform="translate(-145.713 -1953)">
    <g id="Сгруппировать_241" data-name="Сгруппировать 241" transform="translate(129.713 639)">
      <g id="Эллипс_87" data-name="Эллипс 87" transform="translate(16 1314)" fill="#fff" stroke="#00acda" stroke-width="2">
        <circle cx="32" cy="32" r="32" stroke="none"/>
        <circle cx="32" cy="32" r="31" fill="none"/>
      </g>
    </g>
    <g id="Сгруппировать_98" data-name="Сгруппировать 98" transform="translate(-3565.417 2275.355)">
      <g id="Сгруппировать_97" data-name="Сгруппировать 97" transform="translate(3733.55 -305.921)">
        <path id="Контур_91" data-name="Контур 91" d="M3743.131-305.921c-4.79.027-9.581,3.577-9.581,10.568.216,5.7,4.531,7.725,4.92,13.076a2.416,2.416,0,0,0,1.036,1.247,1.438,1.438,0,0,0,.158,1.22c-.226.251-.292.576,0,1.064a.826.826,0,0,0,0,1.065,1.026,1.026,0,0,0,.245,1.323c0,2.091,6.444,2.091,6.444,0a1.026,1.026,0,0,0,.245-1.323.826.826,0,0,0,0-1.065c.292-.489.226-.813,0-1.064a1.438,1.438,0,0,0,.158-1.22,2.416,2.416,0,0,0,1.036-1.247c.388-5.351,4.7-7.38,4.92-13.076,0-6.991-4.79-10.541-9.581-10.568Z" transform="translate(-3733.55 305.921)" fill="none" stroke="#00acda" stroke-width="2"/>
      </g>
    </g>
  </g>
</svg>
