<svg xmlns="http://www.w3.org/2000/svg" width="55" height="55" viewBox="0 0 55 55">
  <g id="organization" transform="translate(-31 -3870)">
    <g id="Эллипс_102" data-name="Эллипс 102" transform="translate(31 3870)" fill="#fff" stroke="#00acda" stroke-width="2">
      <circle cx="27.5" cy="27.5" r="27.5" stroke="none"/>
      <circle cx="27.5" cy="27.5" r="26.5" fill="none"/>
    </g>
    <g id="organization_icon">
      <path id="Контур_81" data-name="Контур 81" d="M2868.932-1541.33a5.649,5.649,0,0,0-5.648,5.648,5.649,5.649,0,0,0,5.648,5.649,5.648,5.648,0,0,0,5.648-5.649,5.648,5.648,0,0,0-5.648-5.648Zm5.072,11.183a7.514,7.514,0,0,1-5.072,1.98,7.515,7.515,0,0,1-5.065-1.977,10.349,10.349,0,0,0-4.517,8.633c0,.05,0,.1.007.151h13.533a10.757,10.757,0,0,1,4.066-5.714,9.881,9.881,0,0,0-2.951-3.074Z" transform="translate(-2817.272 5426.635)" fill="#00acda"/>
      <path id="Контур_83" data-name="Контур 83" d="M3023.382-1502.72a5.648,5.648,0,0,0-5.648,5.648,5.648,5.648,0,0,0,5.648,5.648,5.648,5.648,0,0,0,5.648-5.648A5.649,5.649,0,0,0,3023.382-1502.72Zm5.072,11.182a7.514,7.514,0,0,1-5.072,1.98,7.511,7.511,0,0,1-5.065-1.976,10.347,10.347,0,0,0-4.517,8.633c0,.051,0,.1.007.151h19.153c0-.05,0-.1.007-.151a10.348,10.348,0,0,0-4.51-8.636Z" transform="translate(-2958.044 5391.445)" fill="#00acda"/>
    </g>
  </g>
</svg>
