<svg xmlns="http://www.w3.org/2000/svg" width="55" height="55" viewBox="0 0 55 55">
  <g id="resources" transform="translate(-31 -4196)">
    <g id="Эллипс_104" data-name="Эллипс 104" transform="translate(31 4196)" fill="#fff" stroke="#00acda" stroke-width="2">
      <circle cx="27.5" cy="27.5" r="27.5" stroke="none"/>
      <circle cx="27.5" cy="27.5" r="26.5" fill="none"/>
    </g>
    <path id="resources_icon" d="M3304.425,80.547V77.076l-3.8-.675a14.317,14.317,0,0,0-.676-2.482l2.958-2.509L3301.17,68.4l-3.649,1.323a14.33,14.33,0,0,0-1.81-1.8l1.312-3.666-3.006-1.736-2.5,2.972a14.309,14.309,0,0,0-2.475-.68l-.692-3.806h-3.472l-.676,3.811a14.308,14.308,0,0,0-2.5.653l-2.481-2.949-3.006,1.736,1.287,3.6a14.283,14.283,0,0,0-1.874,1.842l-3.561-1.291-1.736,3.006,2.854,2.422a14.334,14.334,0,0,0-.718,2.593l-3.659.65v3.472l3.657.665a14.342,14.342,0,0,0,.688,2.622l-2.828,2.379,1.736,3.007,3.465-1.24a14.353,14.353,0,0,0,1.932,1.941l-1.25,3.446,3.006,1.736,2.376-2.8a14.29,14.29,0,0,0,2.647.71l.641,3.613h3.472l.658-3.618a14.325,14.325,0,0,0,2.616-.728l2.4,2.825,3.006-1.736-1.279-3.528a14.335,14.335,0,0,0,1.877-1.89l3.549,1.27,1.736-3.007-2.922-2.458a14.293,14.293,0,0,0,.675-2.525Zm-17.81,3.834a5.565,5.565,0,1,1,5.565-5.565A5.565,5.565,0,0,1,3286.615,84.381Z" transform="translate(-3228.115 4144.684)" fill="none" stroke="#00acda" stroke-width="2"/>
  </g>
</svg>
