<svg xmlns="http://www.w3.org/2000/svg" width="55" height="55" viewBox="0 0 55 55">
  <g id="Сгруппировать_330" data-name="Сгруппировать 330" transform="translate(-6198 -3764)">
    <g id="Эллипс_66" data-name="Эллипс 66" transform="translate(6198 3764)" fill="#00acda" stroke="#00acda" stroke-width="3">
      <circle cx="27.5" cy="27.5" r="27.5" stroke="none"/>
      <circle cx="27.5" cy="27.5" r="26" fill="none"/>
    </g>
    <g id="resources_icon">
      <path id="Контур_81" data-name="Контур 81" d="M2868.611-1541.33a5.459,5.459,0,0,0-5.459,5.459,5.46,5.46,0,0,0,5.459,5.459,5.459,5.459,0,0,0,5.459-5.459,5.459,5.459,0,0,0-5.459-5.459Zm4.9,10.808a7.263,7.263,0,0,1-4.9,1.914,7.264,7.264,0,0,1-4.9-1.91,10,10,0,0,0-4.365,8.344c0,.049,0,.1.007.146h13.08a10.4,10.4,0,0,1,3.93-5.522,9.551,9.551,0,0,0-2.853-2.971Z" transform="translate(3349.65 5321.33)" fill="#fff"/>
      <path id="Контур_83" data-name="Контур 83" d="M3023.061-1502.72a5.459,5.459,0,0,0-5.459,5.459,5.459,5.459,0,0,0,5.459,5.459,5.459,5.459,0,0,0,5.459-5.459A5.459,5.459,0,0,0,3023.061-1502.72Zm4.9,10.807a7.262,7.262,0,0,1-4.9,1.914,7.26,7.26,0,0,1-4.9-1.91,10,10,0,0,0-4.365,8.343c0,.049,0,.1.006.146h18.511c0-.049,0-.1.006-.146a10,10,0,0,0-4.359-8.347Z" transform="translate(3209.544 5286.936)" fill="#fff"/>
    </g>
  </g>
</svg>
