<svg xmlns="http://www.w3.org/2000/svg" width="634.366" height="634" viewBox="0 0 634.366 634">
  <g id="sygnet" transform="translate(0 0.04)" opacity="0.05">
    <path id="Контур_1" data-name="Контур 1" d="M2348.564,690.491a291.115,291.115,0,0,1-84.936-189.321h-63.686l-19.821.948a375.042,375.042,0,0,0,357.934,356.756V775.427A290.371,290.371,0,0,1,2348.564,690.491Z" transform="translate(-1904.705 -500.237)" fill="#00acda"/>
    <path id="Контур_2" data-name="Контур 2" d="M2289.8,2382.2A375.183,375.183,0,0,0,2180,2630.1l23.733,1.131h60.014a292.407,292.407,0,0,1,275.221-275.07v-83.643A374.547,374.547,0,0,0,2289.8,2382.2Z" transform="translate(-1904.603 -1997.274)" fill="#00acda"/>
    <path id="Контур_3" data-name="Контур 3" d="M676.956,494.9a292.514,292.514,0,0,1-275.306,275v83.667A376.08,376.08,0,0,0,760.737,494.89h-83.78Z" transform="translate(-401.65 -494.93)" fill="#00acda"/>
    <path id="Контур_4" data-name="Контур 4" d="M735.164,2635.688h24.425c-4.472-93.346-43.352-182.341-109.487-248.475A373.367,373.367,0,0,0,401.65,2277.79v83.456a291.642,291.642,0,0,1,274.438,274.441Z" transform="translate(-401.65 -2001.728)" fill="#00acda"/>
  </g>
</svg>
