<svg xmlns="http://www.w3.org/2000/svg" width="908" height="776" viewBox="0 0 908 776">
  <g id="how__infographic" data-name="how_ infographic" transform="translate(-146 -2434)">
    <g id="Эллипс_122" data-name="Эллипс 122" transform="translate(273 2511)" fill="none" stroke="#00acda" stroke-width="3">
      <circle cx="321.5" cy="321.5" r="321.5" stroke="none"/>
      <circle cx="321.5" cy="321.5" r="320" fill="none"/>
    </g>
    <path id="Контур_136" data-name="Контур 136" d="M5672.5,3419v564.179" transform="translate(-5072 -904)" fill="none" stroke="#00acda" stroke-width="3"/>
    <g id="Сгруппировать_406" data-name="Сгруппировать 406" transform="translate(-5605.637 -348)">
      <g id="Ellipse_94" data-name="Ellipse 94" transform="translate(6254.672 26.02)">
        <circle id="Эллипс_120" data-name="Эллипс 120" cx="80.5" cy="80.5" r="80.5" transform="translate(-129.035 3370.98)" fill="#fff"/>
        <circle id="Эллипс_121" data-name="Эллипс 121" cx="79" cy="79" r="79" transform="translate(-127.535 3372.48)" fill="none" stroke="#00acda" stroke-width="3"/>
      </g>
      <g id="Klient" transform="translate(6254.672 26.02)" style="isolation: isolate">
        <text id="Klient-2" data-name="Klient" transform="translate(-79.27 3460.206)" font-size="23.624" font-family="Roboto-Black, Roboto" font-weight="800" style="isolation: isolate"><tspan x="0" y="0">Klient</tspan></text>
      </g>
    </g>
    <g id="Сгруппировать_405" data-name="Сгруппировать 405" transform="translate(-5028 -962)">
      <g id="Ellipse_95" data-name="Ellipse 95" transform="translate(6254.672 26.02)">
        <circle id="Эллипс_118" data-name="Эллипс 118" cx="80.5" cy="80.5" r="80.5" transform="translate(-706.672 3369.98)" fill="#fff"/>
        <circle id="Эллипс_119" data-name="Эллипс 119" cx="79" cy="79" r="79" transform="translate(-705.172 3371.48)" fill="none" stroke="#00acda" stroke-width="3"/>
      </g>
      <g id="HWL_gradient_pionowy" data-name="HWL gradient pionowy" transform="translate(6254.672 26.02)">
        <g id="Group_1" data-name="Group 1">
          <path id="Path_9" data-name="Path 9" d="M-672.636,3449.8H-676.5v-6.723h-5.714v6.723H-686.1v-16.1h3.88v6.383h5.72v-6.381h3.859Z"/>
          <path id="Path_10" data-name="Path 10" d="M-663.231,3448.512a3.834,3.834,0,0,1-3.191,1.52,3.759,3.759,0,0,1-2.98-1.144,4.862,4.862,0,0,1-1.012-3.289v-7.751h3.726v7.772a1.339,1.339,0,0,0,1.113,1.532,1.332,1.332,0,0,0,.379.006,1.952,1.952,0,0,0,1.824-.912v-8.4h3.748V3449.8h-3.5Z"/>
          <path id="Path_11" data-name="Path 11" d="M-654.06,3437.842l.122,1.4a4.117,4.117,0,0,1,3.416-1.619,3.027,3.027,0,0,1,3.062,1.8,3.986,3.986,0,0,1,3.517-1.8q3.634,0,3.737,4.407v7.784h-3.737v-7.561a2.327,2.327,0,0,0-.3-1.339,1.32,1.32,0,0,0-1.128-.419,1.764,1.764,0,0,0-1.647.983l.011.152v8.172h-3.743v-7.527a2.363,2.363,0,0,0-.3-1.36,1.314,1.314,0,0,0-1.138-.419,1.786,1.786,0,0,0-1.637.983v8.327h-3.72v-11.964Z"/>
          <path id="Path_12" data-name="Path 12" d="M-631.341,3449.8a4.2,4.2,0,0,1-.351-1.073,3.459,3.459,0,0,1-2.875,1.293,4.247,4.247,0,0,1-2.875-1.023,3.251,3.251,0,0,1-1.184-2.565,3.345,3.345,0,0,1,1.438-2.942,7.3,7.3,0,0,1,4.179-.994h1.149v-.638q0-1.656-1.426-1.655a1.165,1.165,0,0,0-1.325.979,1.184,1.184,0,0,0,0,.331h-3.726a3.339,3.339,0,0,1,1.476-2.816,6.167,6.167,0,0,1,3.769-1.079,5.429,5.429,0,0,1,3.615,1.117,3.882,3.882,0,0,1,1.36,3.062v5.3a5.4,5.4,0,0,0,.508,2.521v.188Zm-2.333-2.431a2.084,2.084,0,0,0,1.157-.3,1.872,1.872,0,0,0,.657-.675v-1.909h-1.082q-1.947,0-1.947,1.748a1.063,1.063,0,0,0,.343.824,1.241,1.241,0,0,0,.878.315Z"/>
          <path id="Path_13" data-name="Path 13" d="M-622.639,3437.842l.122,1.4a4.057,4.057,0,0,1,3.416-1.619,3.408,3.408,0,0,1,2.792,1.117,5.327,5.327,0,0,1,.957,3.362v7.707h-3.737v-7.555a2.01,2.01,0,0,0-.365-1.333,1.711,1.711,0,0,0-1.328-.426,1.773,1.773,0,0,0-1.625.862v8.448h-3.726v-11.963Z"/>
          <path id="Path_14" data-name="Path 14" d="M-598.287,3443.8l1.846-10.094h3.848l-3.416,16.1h-4.026l-2.155-9.178-2.112,9.178h-4.014l-3.427-16.1h3.856l1.847,10.094,2.211-10.094h3.293Z" fill="#00acda"/>
          <path id="Path_15" data-name="Path 15" d="M-592.067,3443.713a7.071,7.071,0,0,1,.7-3.191,4.993,4.993,0,0,1,2-2.15,6.017,6.017,0,0,1,3.062-.748,5.5,5.5,0,0,1,4.235,1.664,6.382,6.382,0,0,1,1.549,4.527v.134a6.2,6.2,0,0,1-1.555,4.439,5.516,5.516,0,0,1-4.207,1.641,5.592,5.592,0,0,1-4.1-1.53,5.981,5.981,0,0,1-1.672-4.152Zm3.726.233a4.453,4.453,0,0,0,.52,2.432,1.733,1.733,0,0,0,1.536.775q1.99,0,2.035-3.064v-.375q0-3.218-2.058-3.217-1.866,0-2.023,2.775Z" fill="#00acda"/>
          <path id="Path_16" data-name="Path 16" d="M-571.644,3441.214l-1.228-.088a2.207,2.207,0,0,0-2.255,1.1v7.574h-3.727v-11.959h3.5l.121,1.536a2.88,2.88,0,0,1,2.615-1.751,3.543,3.543,0,0,1,1.039.134Z" fill="#00acda"/>
          <path id="Path_17" data-name="Path 17" d="M-565.5,3445.349l-1.05,1.05v3.406h-3.727v-17h3.726v9.023l.375-.5,2.808-3.5h4.466l-4.19,4.919,4.466,7.044h-4.267Z" fill="#00acda"/>
          <path id="Path_18" data-name="Path 18" d="M-682.212,3467.183h6.752v2.986H-686.1v-16.1h3.88Z"/>
          <path id="Path_19" data-name="Path 19" d="M-674.462,3464.077a7.044,7.044,0,0,1,.7-3.191,4.969,4.969,0,0,1,2-2.15,6.017,6.017,0,0,1,3.062-.748,5.5,5.5,0,0,1,4.234,1.664,6.4,6.4,0,0,1,1.549,4.527v.134a6.205,6.205,0,0,1-1.553,4.439,5.513,5.513,0,0,1-4.208,1.641,5.592,5.592,0,0,1-4.1-1.53,5.982,5.982,0,0,1-1.672-4.152Zm3.726.233a4.453,4.453,0,0,0,.52,2.432,1.733,1.733,0,0,0,1.536.775q1.992,0,2.035-3.064v-.375q0-3.217-2.056-3.217-1.869,0-2.023,2.775Z"/>
          <path id="Path_20" data-name="Path 20" d="M-661.712,3464.1a8.08,8.08,0,0,1,.6-3.207,4.8,4.8,0,0,1,1.714-2.146,4.492,4.492,0,0,1,2.6-.76,3.59,3.59,0,0,1,2.919,1.261l.132-1.039h3.384v11.509a5.05,5.05,0,0,1-.736,2.748,4.732,4.732,0,0,1-2.128,1.792,7.83,7.83,0,0,1-3.232.622,6.787,6.787,0,0,1-2.549-.5,4.605,4.605,0,0,1-1.886-1.295l1.562-2.182a3.413,3.413,0,0,0,2.736,1.226,2.218,2.218,0,0,0,2.484-1.916,2.226,2.226,0,0,0-.008-.626v-.375a3.5,3.5,0,0,1-2.71,1.181,4.324,4.324,0,0,1-3.538-1.672,6.956,6.956,0,0,1-1.349-4.483Zm3.737.231a4.259,4.259,0,0,0,.553,2.328,1.746,1.746,0,0,0,1.547.857,1.982,1.982,0,0,0,1.758-.807v-5.032a1.928,1.928,0,0,0-1.736-.818,1.754,1.754,0,0,0-1.559.889,4.878,4.878,0,0,0-.564,2.582Z"/>
          <path id="Path_21" data-name="Path 21" d="M-648.278,3455.121a1.67,1.67,0,0,1,.574-1.305,2.447,2.447,0,0,1,2.985,0,1.766,1.766,0,0,1,.114,2.494c-.036.04-.074.078-.114.115a2.442,2.442,0,0,1-2.985,0A1.666,1.666,0,0,1-648.278,3455.121Zm3.951,15.045h-3.731v-11.96h3.737Z"/>
          <path id="Path_22" data-name="Path 22" d="M-635.763,3466.8a.854.854,0,0,0-.5-.76,7.679,7.679,0,0,0-1.891-.6,8.614,8.614,0,0,1-2.3-.813,3.835,3.835,0,0,1-1.383-1.216,2.923,2.923,0,0,1-.476-1.648,3.308,3.308,0,0,1,1.36-2.714,5.572,5.572,0,0,1,3.561-1.064,6.18,6.18,0,0,1,3.8,1.073,3.371,3.371,0,0,1,1.441,2.813h-3.737q0-1.437-1.52-1.438a1.5,1.5,0,0,0-.985.327,1,1,0,0,0-.4.813.928.928,0,0,0,.486.807,4.814,4.814,0,0,0,1.553.509,13.29,13.29,0,0,1,1.875.474q2.7.93,2.7,3.328a3.136,3.136,0,0,1-1.454,2.666,6.372,6.372,0,0,1-3.764,1.027,6.508,6.508,0,0,1-2.736-.553,4.589,4.589,0,0,1-1.88-1.5,3.4,3.4,0,0,1-.675-2h3.483a1.456,1.456,0,0,0,.552,1.216,2.288,2.288,0,0,0,1.36.381,1.823,1.823,0,0,0,1.144-.3.99.99,0,0,0,.381-.824Z"/>
          <path id="Path_23" data-name="Path 23" d="M-626.089,3455.232v2.974h1.97v2.583h-1.97v5.473a1.405,1.405,0,0,0,.243.939,1.3,1.3,0,0,0,.962.266,5.554,5.554,0,0,0,.929-.067v2.67a6.9,6.9,0,0,1-2.1.321,3.893,3.893,0,0,1-2.842-.912,3.709,3.709,0,0,1-.912-2.754v-5.931h-1.52v-2.584h1.52v-2.978Z"/>
          <path id="Path_24" data-name="Path 24" d="M-622.683,3455.121a1.67,1.67,0,0,1,.574-1.305,2.449,2.449,0,0,1,2.986,0,1.77,1.77,0,0,1,.11,2.5c-.035.038-.072.075-.11.11a2.446,2.446,0,0,1-2.986,0A1.666,1.666,0,0,1-622.683,3455.121Zm3.959,15.045h-3.735v-11.96h3.737Z"/>
          <path id="Path_25" data-name="Path 25" d="M-611.372,3467.516a1.668,1.668,0,0,0,1.216-.425,1.567,1.567,0,0,0,.421-1.19h3.5a4.124,4.124,0,0,1-1.41,3.229,5.929,5.929,0,0,1-7.745-.377,6.463,6.463,0,0,1-1.506-4.535v-.148a7.294,7.294,0,0,1,.669-3.2,4.882,4.882,0,0,1,1.93-2.128,5.773,5.773,0,0,1,2.985-.746,5.17,5.17,0,0,1,3.705,1.295,4.576,4.576,0,0,1,1.368,3.5h-3.5a2.033,2.033,0,0,0-.456-1.427,1.558,1.558,0,0,0-1.216-.5q-1.447,0-1.691,1.846a13.16,13.16,0,0,0-.078,1.614,5.1,5.1,0,0,0,.432,2.5A1.5,1.5,0,0,0-611.372,3467.516Z"/>
        </g>
      </g>
    </g>
    <g id="Сгруппировать_432" data-name="Сгруппировать 432" transform="translate(6)">
      <g id="Сгруппировать_430" data-name="Сгруппировать 430" transform="translate(67 7)">
        <rect id="Прямоугольник_174" data-name="Прямоугольник 174" width="286" height="62" rx="31" transform="translate(73 2790)" fill="#00acda"/>
        <g id="Сгруппировать_416" data-name="Сгруппировать 416" transform="translate(19 28)">
          <text id="Dzierżawa_zasobów_surowców_oraz_narzędzi." data-name="Dzierżawa zasobów, surowców oraz narzędzi." transform="translate(86 2770)" fill="#fff" font-size="16" font-family="Roboto-Bold, Roboto" font-weight="700"><tspan x="0" y="17">Dzierżawa zasobów, surowców </tspan><tspan x="0" y="38">oraz narzędzi.</tspan></text>
        </g>
      </g>
      <g id="Сгруппировать_431" data-name="Сгруппировать 431" transform="translate(378 -78)">
        <rect id="Прямоугольник_175" data-name="Прямоугольник 175" width="286" height="62" rx="31" transform="translate(73 2875)" fill="#00acda"/>
        <text id="Świadczenie_usług." data-name="Świadczenie usług." transform="translate(145 2895)" fill="#fff" font-size="16" font-family="Roboto-Bold, Roboto" font-weight="700"><tspan x="0" y="17">Świadczenie usług.</tspan></text>
      </g>
      <g id="Сгруппировать_429" data-name="Сгруппировать 429" transform="translate(689 -163)">
        <rect id="Прямоугольник_176" data-name="Прямоугольник 176" width="286" height="62" rx="31" transform="translate(73 2960)" fill="#00acda"/>
        <text id="Realizacja_procesów." data-name="Realizacja procesów." transform="translate(139 2981)" fill="#fff" font-size="16" font-family="Roboto-Bold, Roboto" font-weight="700"><tspan x="0" y="17">Realizacja procesów.</tspan></text>
      </g>
    </g>
    <g id="Сгруппировать_412" data-name="Сгруппировать 412" transform="translate(58.808 11)">
      <g id="Эллипс_92" data-name="Эллипс 92" transform="translate(302.905 2638) rotate(-139)" fill="#00acda" stroke="#00acda" stroke-width="3">
        <circle cx="27.5" cy="27.5" r="27.5" stroke="none"/>
        <circle cx="27.5" cy="27.5" r="26" fill="none"/>
      </g>
      <path id="Контур_100" data-name="Контур 100" d="M3130.933,3175.5l-14.665,8.791,14.665,8.928" transform="translate(4753.177 2330.877) rotate(131)" fill="none" stroke="#fff" stroke-linecap="round" stroke-linejoin="round" stroke-width="4"/>
    </g>
    <g id="Сгруппировать_411" data-name="Сгруппировать 411" transform="translate(42 13.796)">
      <g id="Эллипс_92-2" data-name="Эллипс 92" transform="translate(259.049 3010.491) rotate(-41)" fill="#00acda" stroke="#00acda" stroke-width="3">
        <ellipse cx="27.5" cy="27.5" rx="27.5" ry="27.5" stroke="none"/>
        <ellipse cx="27.5" cy="27.5" rx="26" ry="26" fill="none"/>
      </g>
      <path id="Контур_100-2" data-name="Контур 100" d="M14.665,17.719,0,8.928,14.664,0" transform="translate(299.271 3001.815) rotate(49)" fill="none" stroke="#fff" stroke-linecap="round" stroke-linejoin="round" stroke-width="4"/>
    </g>
    <g id="Сгруппировать_409" data-name="Сгруппировать 409" transform="translate(-74 10)">
      <g id="Эллипс_92-3" data-name="Эллипс 92" transform="translate(865.704 2596.491) rotate(-41)" fill="#00acda" stroke="#00acda" stroke-width="3">
        <ellipse cx="27.5" cy="27.5" rx="27.5" ry="27.5" stroke="none"/>
        <ellipse cx="27.5" cy="27.5" rx="26" ry="26" fill="none"/>
      </g>
      <path id="Контур_100-3" data-name="Контур 100" d="M14.665,17.719,0,8.928,14.664,0" transform="translate(905.926 2587.815) rotate(49)" fill="none" stroke="#fff" stroke-linecap="round" stroke-linejoin="round" stroke-width="4"/>
    </g>
    <g id="Сгруппировать_410" data-name="Сгруппировать 410" transform="translate(-52.949 13.796)">
      <g id="Эллипс_92-4" data-name="Эллипс 92" transform="translate(904.866 3052) rotate(-139)" fill="#00acda" stroke="#00acda" stroke-width="3">
        <ellipse cx="27.5" cy="27.5" rx="27.5" ry="27.5" stroke="none"/>
        <ellipse cx="27.5" cy="27.5" rx="26" ry="26" fill="none"/>
      </g>
      <path id="Контур_100-4" data-name="Контур 100" d="M14.665,0,0,8.791l14.664,8.928" transform="translate(914.101 3013.44) rotate(131)" fill="none" stroke="#fff" stroke-linecap="round" stroke-linejoin="round" stroke-width="4"/>
    </g>
    <g id="Сгруппировать_408" data-name="Сгруппировать 408" transform="translate(0 17)">
      <g id="Эллипс_92-5" data-name="Эллипс 92" transform="translate(628 2693) rotate(180)" fill="#00acda" stroke="#00acda" stroke-width="3">
        <circle cx="27.5" cy="27.5" r="27.5" stroke="none"/>
        <circle cx="27.5" cy="27.5" r="26" fill="none"/>
      </g>
      <path id="Контур_100-5" data-name="Контур 100" d="M3130.933,3175.5l-14.665,8.791,14.665,8.928" transform="translate(3785.172 -458.429) rotate(90)" fill="none" stroke="#fff" stroke-linecap="round" stroke-linejoin="round" stroke-width="4"/>
    </g>
    <g id="Сгруппировать_407" data-name="Сгруппировать 407" transform="translate(-2 -2)">
      <g id="Сгруппировать_417" data-name="Сгруппировать 417" transform="translate(0 23)">
        <g id="Эллипс_92-6" data-name="Эллипс 92" transform="translate(575 2911)" fill="#00acda" stroke="#00acda" stroke-width="3">
          <circle cx="27.5" cy="27.5" r="27.5" stroke="none"/>
          <circle cx="27.5" cy="27.5" r="26" fill="none"/>
        </g>
        <path id="Контур_100-6" data-name="Контур 100" d="M3130.933,3175.5l-14.665,8.791,14.665,8.928" transform="translate(-2582.172 6062.429) rotate(-90)" fill="none" stroke="#fff" stroke-linecap="round" stroke-linejoin="round" stroke-width="4"/>
      </g>
    </g>
  </g>
</svg>
