<svg xmlns="http://www.w3.org/2000/svg" width="330.645" height="185" viewBox="0 0 330.645 185">
  <g id="scheme" transform="translate(-15.909 -3124)">
    <line id="Линия_7" data-name="Линия 7" x2="203" transform="translate(80.5 3216.5)" fill="none" stroke="#00acda" stroke-width="2"/>
    <g id="Прямоугольник_173" data-name="Прямоугольник 173" transform="translate(40 3147)" fill="none" stroke="#00acda" stroke-width="2">
      <rect width="282" height="140" rx="33" stroke="none"/>
      <rect x="1" y="1" width="280" height="138" rx="32" fill="none"/>
    </g>
    <g id="Сгруппировать_447" data-name="Сгруппировать 447">
      <rect id="Прямоугольник_177" data-name="Прямоугольник 177" width="168" height="37" rx="18.5" transform="translate(97 3198)" fill="#00acda"/>
      <path id="Контур_100" data-name="Контур 100" d="M9.927,0,0,5.951l9.927,6.044" transform="translate(251.57 3222.594) rotate(180)" fill="none" stroke="#fff" stroke-linecap="round" stroke-linejoin="round" stroke-width="2"/>
      <path id="Контур_100-2" data-name="Контур 100" d="M9.927,0,0,5.951l9.927,6.044" transform="translate(110.43 3210.406)" fill="none" stroke="#fff" stroke-linecap="round" stroke-linejoin="round" stroke-width="2"/>
      <text id="Współpraca" transform="translate(143 3206)" fill="#fff" font-size="14" font-family="Roboto-Bold, Roboto" font-weight="700"><tspan x="0" y="15">Współpraca</tspan></text>
    </g>
    <g id="Сгруппировать_448" data-name="Сгруппировать 448">
      <g id="Ellipse_94" data-name="Ellipse 94" transform="translate(16 3182)">
        <circle id="Эллипс_120" data-name="Эллипс 120" cx="34" cy="34" r="34" fill="#fff"/>
        <circle id="Эллипс_121" data-name="Эллипс 121" cx="33.495" cy="33.495" r="33.495" transform="translate(0.909 0.394)" fill="none" stroke="#00acda" stroke-width="2"/>
      </g>
      <g id="Klient" transform="translate(32 3214)" style="isolation: isolate">
        <text id="Klient-2" data-name="Klient" transform="translate(0 8)" font-size="14" font-family="Roboto-Black, Roboto" font-weight="800" style="isolation: isolate"><tspan x="0" y="0">Klient</tspan></text>
      </g>
    </g>
    <g id="Сгруппировать_440" data-name="Сгруппировать 440" transform="translate(28 -385)">
      <g id="Ellipse_95" data-name="Ellipse 95" transform="translate(250.178 3567)">
        <circle id="Эллипс_118" data-name="Эллипс 118" cx="34" cy="34" r="34" transform="translate(-0.178)" fill="#fff"/>
        <path id="Контур_137" data-name="Контур 137" d="M33.5,0A33.5,33.5,0,1,1,1.44,43.242,32.99,32.99,0,0,1,0,33.5,33.5,33.5,0,0,1,33.5,0Z" transform="translate(0.382 0)" fill="#fff" stroke="#00acda" stroke-width="2"/>
      </g>
      <g id="HWL_gradient_pionowy" data-name="HWL gradient pionowy" transform="translate(262 3594)">
        <g id="Group_1" data-name="Group 1" transform="translate(0 0)">
          <path id="Path_9" data-name="Path 9" d="M-681.349,3439.385h-1.363v-2.372h-2.016v2.372H-686.1v-5.68h1.369v2.252h2.018v-2.251h1.362Z" transform="translate(686.098 -3433.387)"/>
          <path id="Path_10" data-name="Path 10" d="M-667.886,3441.609a1.353,1.353,0,0,1-1.126.537,1.328,1.328,0,0,1-1.051-.4,1.716,1.716,0,0,1-.357-1.161v-2.734h1.315v2.742a.473.473,0,0,0,.393.541.481.481,0,0,0,.134,0,.689.689,0,0,0,.643-.322v-2.964h1.322v4.218h-1.235Z" transform="translate(675.954 -3436.068)"/>
          <path id="Path_11" data-name="Path 11" d="M-656.315,3437.691l.043.494a1.453,1.453,0,0,1,1.205-.572,1.068,1.068,0,0,1,1.08.635,1.407,1.407,0,0,1,1.241-.635q1.282,0,1.318,1.555v2.746h-1.318v-2.667a.823.823,0,0,0-.106-.473.466.466,0,0,0-.4-.148.623.623,0,0,0-.581.347l0,.053v2.884h-1.32v-2.656a.833.833,0,0,0-.106-.479.464.464,0,0,0-.4-.148.631.631,0,0,0-.578.347v2.938h-1.312v-4.221Z" transform="translate(667.619 -3435.914)"/>
          <path id="Path_12" data-name="Path 12" d="M-636.059,3441.915a1.482,1.482,0,0,1-.124-.379,1.22,1.22,0,0,1-1.014.456,1.5,1.5,0,0,1-1.014-.361,1.146,1.146,0,0,1-.418-.9,1.181,1.181,0,0,1,.507-1.038,2.576,2.576,0,0,1,1.474-.35h.405v-.225q0-.584-.5-.584a.411.411,0,0,0-.467.346.417.417,0,0,0,0,.117h-1.315a1.178,1.178,0,0,1,.521-.994,2.179,2.179,0,0,1,1.33-.381,1.915,1.915,0,0,1,1.275.394,1.37,1.37,0,0,1,.48,1.08v1.87a1.907,1.907,0,0,0,.179.889v.066Zm-.823-.858a.736.736,0,0,0,.408-.106.663.663,0,0,0,.232-.238v-.674h-.382q-.687,0-.687.617a.376.376,0,0,0,.121.291.44.44,0,0,0,.31.111Z" transform="translate(655.378 -3435.917)"/>
          <path id="Path_13" data-name="Path 13" d="M-624.9,3437.694l.043.494a1.431,1.431,0,0,1,1.205-.571,1.2,1.2,0,0,1,.985.394,1.882,1.882,0,0,1,.338,1.187v2.719h-1.318v-2.666a.709.709,0,0,0-.129-.47.6.6,0,0,0-.469-.15.625.625,0,0,0-.573.3v2.98h-1.315v-4.22Z" transform="translate(647.289 -3435.917)"/>
          <path id="Path_14" data-name="Path 14" d="M-607,3437.268l.651-3.561h1.358l-1.205,5.68h-1.42l-.76-3.238-.745,3.238h-1.416l-1.209-5.68h1.36l.652,3.561.78-3.561h1.162Z" transform="translate(637.976 -3433.389)" fill="#00acda"/>
          <path id="Path_15" data-name="Path 15" d="M-592.068,3439.767a2.5,2.5,0,0,1,.247-1.126,1.761,1.761,0,0,1,.706-.758,2.121,2.121,0,0,1,1.08-.264,1.939,1.939,0,0,1,1.494.587,2.252,2.252,0,0,1,.547,1.6v.047a2.187,2.187,0,0,1-.549,1.566,1.946,1.946,0,0,1-1.484.579,1.973,1.973,0,0,1-1.447-.54,2.111,2.111,0,0,1-.59-1.465Zm1.315.082a1.572,1.572,0,0,0,.183.858.612.612,0,0,0,.542.273q.7,0,.718-1.081v-.132q0-1.136-.726-1.135-.658,0-.714.979Z" transform="translate(625.242 -3435.919)" fill="#00acda"/>
          <path id="Path_16" data-name="Path 16" d="M-576.31,3438.891l-.433-.031a.779.779,0,0,0-.8.388v2.672h-1.315V3437.7h1.235l.043.542a1.016,1.016,0,0,1,.923-.617,1.241,1.241,0,0,1,.367.047Z" transform="translate(616.69 -3435.925)" fill="#00acda"/>
          <path id="Path_17" data-name="Path 17" d="M-568.589,3437.231l-.37.37v1.2h-1.315v-6h1.315v3.183l.132-.177.991-1.235h1.576l-1.478,1.736,1.576,2.485h-1.505Z" transform="translate(611.137 -3432.805)" fill="#00acda"/>
          <path id="Path_18" data-name="Path 18" d="M-684.727,3458.7h2.382v1.054H-686.1v-5.68h1.369Z" transform="translate(686.098 -3446.567)"/>
          <path id="Path_19" data-name="Path 19" d="M-674.463,3460.131a2.487,2.487,0,0,1,.247-1.126,1.755,1.755,0,0,1,.706-.759,2.119,2.119,0,0,1,1.08-.264,1.938,1.938,0,0,1,1.494.587,2.258,2.258,0,0,1,.547,1.6v.047a2.189,2.189,0,0,1-.548,1.566,1.943,1.943,0,0,1-1.485.579,1.972,1.972,0,0,1-1.447-.54,2.111,2.111,0,0,1-.59-1.465Zm1.315.082a1.573,1.573,0,0,0,.183.858.612.612,0,0,0,.542.273q.7,0,.718-1.081v-.132q0-1.135-.725-1.135-.659,0-.714.979Z" transform="translate(678.568 -3449.098)"/>
          <path id="Path_20" data-name="Path 20" d="M-661.721,3460.141a2.853,2.853,0,0,1,.212-1.132,1.691,1.691,0,0,1,.6-.757,1.586,1.586,0,0,1,.917-.269,1.269,1.269,0,0,1,1.03.445l.047-.366h1.194v4.06a1.782,1.782,0,0,1-.26.969,1.674,1.674,0,0,1-.751.633,2.77,2.77,0,0,1-1.14.219,2.4,2.4,0,0,1-.9-.177,1.628,1.628,0,0,1-.665-.457l.551-.77a1.2,1.2,0,0,0,.965.432.783.783,0,0,0,.876-.676.779.779,0,0,0,0-.221v-.132a1.235,1.235,0,0,1-.956.417,1.525,1.525,0,0,1-1.248-.59,2.454,2.454,0,0,1-.476-1.581Zm1.318.082a1.5,1.5,0,0,0,.2.821.615.615,0,0,0,.546.3.7.7,0,0,0,.62-.284v-1.775a.68.68,0,0,0-.612-.289.618.618,0,0,0-.55.314,1.72,1.72,0,0,0-.2.911Z" transform="translate(670.325 -3449.099)"/>
          <path id="Path_21" data-name="Path 21" d="M-648.278,3453.948a.589.589,0,0,1,.2-.46.864.864,0,0,1,1.053,0,.623.623,0,0,1,.04.88c-.013.014-.026.028-.04.041a.861.861,0,0,1-1.053,0A.588.588,0,0,1-648.278,3453.948Zm1.394,5.308H-648.2v-4.219h1.318Z" transform="translate(661.621 -3446.074)"/>
          <path id="Path_22" data-name="Path 22" d="M-640.245,3461.091a.3.3,0,0,0-.176-.268,2.716,2.716,0,0,0-.667-.212,3.051,3.051,0,0,1-.811-.286,1.361,1.361,0,0,1-.488-.429,1.033,1.033,0,0,1-.168-.582,1.167,1.167,0,0,1,.48-.958,1.965,1.965,0,0,1,1.256-.375,2.176,2.176,0,0,1,1.341.379,1.189,1.189,0,0,1,.508.992h-1.318q0-.507-.536-.507a.525.525,0,0,0-.348.115.355.355,0,0,0-.141.287.328.328,0,0,0,.172.285,1.709,1.709,0,0,0,.548.18,4.644,4.644,0,0,1,.661.167,1.2,1.2,0,0,1,.953,1.174,1.106,1.106,0,0,1-.513.941,2.247,2.247,0,0,1-1.328.362,2.3,2.3,0,0,1-.965-.2,1.618,1.618,0,0,1-.663-.529,1.2,1.2,0,0,1-.238-.706h1.229a.513.513,0,0,0,.195.429.807.807,0,0,0,.48.135.645.645,0,0,0,.4-.106.35.35,0,0,0,.134-.291Z" transform="translate(658.003 -3449.097)"/>
          <path id="Path_23" data-name="Path 23" d="M-629.48,3455.232v1.049h.695v.912h-.695v1.931a.5.5,0,0,0,.086.331.46.46,0,0,0,.339.094,2.017,2.017,0,0,0,.328-.024v.942a2.43,2.43,0,0,1-.741.113,1.373,1.373,0,0,1-1-.322,1.309,1.309,0,0,1-.322-.971v-2.093h-.536v-.912h.536v-1.051Z" transform="translate(650.652 -3447.32)"/>
          <path id="Path_24" data-name="Path 24" d="M-622.683,3453.948a.589.589,0,0,1,.2-.46.864.864,0,0,1,1.053,0,.624.624,0,0,1,.039.882c-.012.013-.025.027-.039.039a.863.863,0,0,1-1.053,0A.588.588,0,0,1-622.683,3453.948Zm1.4,5.308H-622.6v-4.219h1.318Z" transform="translate(645.056 -3446.074)"/>
          <path id="Path_25" data-name="Path 25" d="M-614.954,3461.35a.589.589,0,0,0,.429-.15.553.553,0,0,0,.149-.42h1.235a1.455,1.455,0,0,1-.5,1.139,2.092,2.092,0,0,1-2.732-.133,2.28,2.28,0,0,1-.531-1.6v-.052a2.575,2.575,0,0,1,.236-1.129,1.721,1.721,0,0,1,.681-.751,2.038,2.038,0,0,1,1.053-.263,1.825,1.825,0,0,1,1.307.457,1.616,1.616,0,0,1,.483,1.235h-1.235a.717.717,0,0,0-.161-.5.55.55,0,0,0-.429-.176q-.511,0-.6.651a4.648,4.648,0,0,0-.028.569,1.8,1.8,0,0,0,.152.882A.528.528,0,0,0-614.954,3461.35Z" transform="translate(641.318 -3449.104)"/>
        </g>
      </g>
    </g>
    <g id="Сгруппировать_445" data-name="Сгруппировать 445">
      <rect id="Прямоугольник_170" data-name="Прямоугольник 170" width="231" height="46" rx="23" transform="translate(66 3124)" fill="#00acda"/>
      <text id="Dzierżawa_zasobów_surowców_oraz_narzędzi" data-name="Dzierżawa zasobów,
surowców oraz narzędzi" transform="translate(103 3126)" fill="#fff" font-size="14" font-family="Roboto-Bold, Roboto" font-weight="700"><tspan x="0" y="15">Dzierżawa zasobów,</tspan><tspan x="0" y="34">surowców oraz narzędzi</tspan></text>
      <g id="Сгруппировать_443" data-name="Сгруппировать 443" transform="translate(297 3128.771) rotate(90)">
        <path id="Контур_100-3" data-name="Контур 100" d="M9.927,0,0,5.951l9.927,6.044" transform="translate(24.823 13.43) rotate(90)" fill="none" stroke="#fff" stroke-linecap="round" stroke-linejoin="round" stroke-width="2"/>
      </g>
    </g>
    <g id="Сгруппировать_446" data-name="Сгруппировать 446">
      <rect id="Прямоугольник_172" data-name="Прямоугольник 172" width="231" height="43" rx="21.5" transform="translate(65 3266)" fill="#00acda"/>
      <text id="Realizacja_procesów" data-name="Realizacja procesów" transform="translate(116 3277)" fill="#fff" font-size="14" font-family="Roboto-Bold, Roboto" font-weight="700"><tspan x="0" y="15">Realizacja procesów</tspan></text>
      <path id="Контур_100-4" data-name="Контур 100" d="M9.927,0,0,5.951l9.927,6.044" transform="translate(282.57 3293.594) rotate(180)" fill="none" stroke="#fff" stroke-linecap="round" stroke-linejoin="round" stroke-width="2"/>
    </g>
  </g>
</svg>
