<svg xmlns="http://www.w3.org/2000/svg" width="998" height="362" viewBox="0 0 998 362">
  <g id="production_outsourcing" data-name="production outsourcing" transform="translate(-98 -3999)">
    <g id="Сгруппировать_167" data-name="Сгруппировать 167">
      <g id="Прямоугольник_141" data-name="Прямоугольник 141" transform="translate(111 4026)" fill="#fff" stroke="#00acda" stroke-width="3">
        <rect width="649" height="152" rx="33" stroke="none"/>
        <rect x="1.5" y="1.5" width="646" height="149" rx="31.5" fill="none"/>
      </g>
      <g id="Эллипс_101" data-name="Эллипс 101" transform="translate(98 3999)" fill="#fff" stroke="#00acda" stroke-width="3">
        <circle cx="27.5" cy="27.5" r="27.5" stroke="none"/>
        <circle cx="27.5" cy="27.5" r="26" fill="none"/>
      </g>
      <path id="service_icon_8" d="M1445.707,4032.061l10.753,9.525,17.551-23.826" transform="translate(-1334.359 -3.173)" fill="none" stroke="#00acda" stroke-linecap="round" stroke-linejoin="round" stroke-width="3"/>
    </g>
    <g id="Сгруппировать_281" data-name="Сгруппировать 281" transform="translate(3)">
      <g id="Прямоугольник_146" data-name="Прямоугольник 146" transform="translate(787 4026)" fill="#fff" stroke="#00acda" stroke-width="3">
        <rect width="306" height="152" rx="33" stroke="none"/>
        <rect x="1.5" y="1.5" width="303" height="149" rx="31.5" fill="none"/>
      </g>
      <g id="Эллипс_102" data-name="Эллипс 102" transform="translate(780 3999)" fill="#fff" stroke="#00acda" stroke-width="3">
        <circle cx="27.5" cy="27.5" r="27.5" stroke="none"/>
        <circle cx="27.5" cy="27.5" r="26" fill="none"/>
      </g>
      <g id="service_icon_9" transform="translate(-2068.273 5555.635)">
        <path id="Контур_81" data-name="Контур 81" d="M2868.932-1541.33a5.649,5.649,0,0,0-5.648,5.648,5.649,5.649,0,0,0,5.648,5.649,5.648,5.648,0,0,0,5.648-5.649,5.648,5.648,0,0,0-5.648-5.648Zm5.072,11.183a7.514,7.514,0,0,1-5.072,1.98,7.515,7.515,0,0,1-5.065-1.977,10.349,10.349,0,0,0-4.517,8.633c0,.05,0,.1.007.151h13.533a10.757,10.757,0,0,1,4.066-5.714,9.881,9.881,0,0,0-2.951-3.074Z" transform="translate(0 0)" fill="#00acda"/>
        <path id="Контур_83" data-name="Контур 83" d="M3023.382-1502.72a5.648,5.648,0,0,0-5.648,5.648,5.648,5.648,0,0,0,5.648,5.648,5.648,5.648,0,0,0,5.648-5.648A5.649,5.649,0,0,0,3023.382-1502.72Zm5.072,11.182a7.514,7.514,0,0,1-5.072,1.98,7.511,7.511,0,0,1-5.065-1.976,10.347,10.347,0,0,0-4.517,8.633c0,.051,0,.1.007.151h19.153c0-.05,0-.1.007-.151a10.348,10.348,0,0,0-4.51-8.636Z" transform="translate(-140.771 -35.19)" fill="#00acda"/>
      </g>
    </g>
    <g id="Сгруппировать_282" data-name="Сгруппировать 282" transform="translate(2 -6)">
      <g id="Прямоугольник_142" data-name="Прямоугольник 142" transform="translate(111 4215)" fill="#fff" stroke="#00acda" stroke-width="3">
        <rect width="306" height="152" rx="33" stroke="none"/>
        <rect x="1.5" y="1.5" width="303" height="149" rx="31.5" fill="none"/>
      </g>
      <g id="Эллипс_103" data-name="Эллипс 103" transform="translate(104 4196)" fill="#fff" stroke="#00acda" stroke-width="3">
        <circle cx="27.5" cy="27.5" r="27.5" stroke="none"/>
        <circle cx="27.5" cy="27.5" r="26" fill="none"/>
      </g>
      <path id="service_icon_10" d="M-1104.573-1001.535a10.864,10.864,0,0,0-1.523-13.43,10.864,10.864,0,0,0-15.364,0h0a10.864,10.864,0,0,0,0,15.364,10.864,10.864,0,0,0,13.43,1.523l8.932,8.932,3.457-3.457Z" transform="translate(1241.642 5227.146)" fill="none" stroke="#00acdb" stroke-linecap="round" stroke-linejoin="round" stroke-width="3"/>
    </g>
    <g id="Сгруппировать_284" data-name="Сгруппировать 284" transform="translate(-7 -5)">
      <g id="Прямоугольник_144" data-name="Прямоугольник 144" transform="translate(796 4214)" fill="#fff" stroke="#00acda" stroke-width="3">
        <rect width="306" height="152" rx="33" stroke="none"/>
        <rect x="1.5" y="1.5" width="303" height="149" rx="31.5" fill="none"/>
      </g>
      <g id="Эллипс_105" data-name="Эллипс 105" transform="translate(789 4196)" fill="#fff" stroke="#00acda" stroke-width="3">
        <circle cx="27.5" cy="27.5" r="27.5" stroke="none"/>
        <circle cx="27.5" cy="27.5" r="26" fill="none"/>
      </g>
      <g id="service_icon_12" transform="translate(-4022.308 5400.1)">
        <g id="Сгруппировать_99" data-name="Сгруппировать 99" transform="translate(4827.717 -1191.14)">
          <path id="Контур_92" data-name="Контур 92" d="M4844.108-1191.14h-16.392v29.081H4849.9v-23.291Zm4.594,27.512h-19.789v-25.943h14.624v5.166h5.165Z" transform="translate(-4827.717 1191.14)" fill="#00acda" stroke="#00acda" stroke-width="1"/>
          <rect id="Прямоугольник_122" data-name="Прямоугольник 122" width="15.014" height="1.893" transform="translate(3.584 21.553)" fill="#00acda" stroke="#00acda" stroke-width="1"/>
          <rect id="Прямоугольник_123" data-name="Прямоугольник 123" width="15.014" height="1.893" transform="translate(3.584 17.853)" fill="#00acda" stroke="#00acda" stroke-width="1"/>
          <rect id="Прямоугольник_124" data-name="Прямоугольник 124" width="15.014" height="1.893" transform="translate(3.584 14.153)" fill="#00acda" stroke="#00acda" stroke-width="1"/>
          <rect id="Прямоугольник_125" data-name="Прямоугольник 125" width="15.014" height="1.893" transform="translate(3.584 10.454)" fill="#00acda" stroke="#00acda" stroke-width="1"/>
        </g>
      </g>
    </g>
    <g id="Сгруппировать_283" data-name="Сгруппировать 283" transform="translate(-3 -5)">
      <g id="Прямоугольник_143" data-name="Прямоугольник 143" transform="translate(454 4214)" fill="#fff" stroke="#00acda" stroke-width="3">
        <rect width="306" height="152" rx="33" stroke="none"/>
        <rect x="1.5" y="1.5" width="303" height="149" rx="31.5" fill="none"/>
      </g>
      <g id="Эллипс_104" data-name="Эллипс 104" transform="translate(447 4196)" fill="#fff" stroke="#00acda" stroke-width="3">
        <circle cx="27.5" cy="27.5" r="27.5" stroke="none"/>
        <circle cx="27.5" cy="27.5" r="26" fill="none"/>
      </g>
      <g id="service_icon_8-2" data-name="service_icon_8" transform="translate(-2812.115 4144.684)">
        <path id="Контур_113" data-name="Контур 113" d="M3304.425,80.547V77.076l-3.8-.675a14.317,14.317,0,0,0-.676-2.482l2.958-2.509L3301.17,68.4l-3.649,1.323a14.33,14.33,0,0,0-1.81-1.8l1.312-3.666-3.006-1.736-2.5,2.972a14.309,14.309,0,0,0-2.475-.68l-.692-3.806h-3.472l-.676,3.811a14.308,14.308,0,0,0-2.5.653l-2.481-2.949-3.006,1.736,1.287,3.6a14.283,14.283,0,0,0-1.874,1.842l-3.561-1.291-1.736,3.006,2.854,2.422a14.334,14.334,0,0,0-.718,2.593l-3.659.65v3.472l3.657.665a14.342,14.342,0,0,0,.688,2.622l-2.828,2.379,1.736,3.007,3.465-1.24a14.353,14.353,0,0,0,1.932,1.941l-1.25,3.446,3.006,1.736,2.376-2.8a14.29,14.29,0,0,0,2.647.71l.641,3.613h3.472l.658-3.618a14.325,14.325,0,0,0,2.616-.728l2.4,2.825,3.006-1.736-1.279-3.528a14.335,14.335,0,0,0,1.877-1.89l3.549,1.27,1.736-3.007-2.922-2.458a14.293,14.293,0,0,0,.675-2.525Zm-17.81,3.834a5.565,5.565,0,1,1,5.565-5.565A5.565,5.565,0,0,1,3286.615,84.381Z" transform="translate(0 0)" fill="none" stroke="#00acda" stroke-width="3"/>
      </g>
    </g>
  </g>
</svg>
